<svg width="60" height="60" viewBox="0 0 60 60" fill="none" xmlns="http://www.w3.org/2000/svg">
<path fill-rule="evenodd" clip-rule="evenodd" d="M19.6063 28.0952C19.6063 28.3227 19.6848 28.5455 19.8275 28.7225C20.132 29.1005 20.0725 29.6538 19.6945 29.9583C19.5321 30.089 19.3372 30.1527 19.1437 30.1527C18.8869 30.1527 18.6323 30.0406 18.4587 29.8251C18.0652 29.3367 17.8485 28.7223 17.8485 28.0951V26.1405C16.9499 26.4697 15.9809 26.6515 14.9698 26.6515C13.9587 26.6515 12.9896 26.4698 12.0912 26.1405V28.0951C12.0912 29.2012 11.4254 30.1896 10.4327 30.6221L14.0078 32.6651C14.6012 33.0042 15.3386 33.0042 15.932 32.6651L17.19 31.9462C17.6114 31.7053 18.1484 31.8517 18.3892 32.2733C18.63 32.6946 18.4835 33.2315 18.0621 33.4724L16.8041 34.1913C16.2384 34.5145 15.604 34.6762 14.9698 34.6762C14.3354 34.6762 13.7013 34.5146 13.1355 34.1913L8.07176 31.2977L3.87914 32.4411C2.63004 32.7818 1.75781 33.9238 1.75781 35.2183V38.924C1.75781 39.4753 2.20629 39.9239 2.75766 39.9239H5.63625V37.0453C5.63625 36.5598 6.02977 36.1664 6.51516 36.1664C7.00055 36.1664 7.39406 36.5598 7.39406 37.0453V53.9543C7.39406 54.4398 7.00055 54.8332 6.51516 54.8332C6.02977 54.8332 5.63625 54.4398 5.63625 53.9543V41.6817H2.75766C2.74462 41.6817 2.73169 41.6813 2.71875 41.6808L2.69719 41.6802V52.0755C2.69719 52.561 2.30367 52.9544 1.81828 52.9544C1.33289 52.9544 0.939375 52.561 0.939375 52.0755V40.9947C0.364102 40.489 0 39.7485 0 38.924V35.2183C0 33.1332 1.40496 31.2938 3.4166 30.7452L9.5966 29.0598C10.0304 28.9415 10.3334 28.5449 10.3334 28.0952V25.2494C8.30121 23.8972 6.88793 21.6854 6.62144 19.1363H6.51527C5.70516 19.1363 4.93922 18.7822 4.41398 18.1646C3.88898 17.5473 3.66328 16.7299 3.79477 15.922C3.8966 15.2954 4.22824 14.7443 4.69699 14.3375V10.7423C4.69699 7.73037 7.09746 5.26838 10.0859 5.16959C10.6044 4.57861 11.3576 4.22705 12.1516 4.22705H18.7274C22.32 4.22705 25.2427 7.14982 25.2427 10.7423V14.3375C25.7114 14.7443 26.0429 15.2955 26.1449 15.922C26.2764 16.7299 26.0507 17.5473 25.5257 18.1646C25.0004 18.7822 24.2346 19.1363 23.4244 19.1363H23.3182C23.0516 21.6854 21.6384 23.8973 19.6063 25.2494V28.0952ZM10.2729 6.92424C8.16762 6.92424 6.4548 8.63705 6.4548 10.7423H6.45469V13.6281L6.49245 13.6259C6.53344 13.6234 6.57439 13.6209 6.61582 13.6209H7.45465C8.0059 13.6209 8.45449 13.1724 8.45449 12.6211C8.45449 11.8899 8.77242 11.2039 9.32672 10.7344C9.88101 10.2648 10.6097 10.0639 11.3264 10.1835L20.7507 11.754C21.1746 11.8247 21.4852 12.1912 21.4852 12.621C21.4852 13.1722 21.9336 13.6208 22.485 13.6208H23.3238C23.3653 13.6208 23.4063 13.6233 23.4472 13.6258H23.4473H23.4473H23.4473H23.4473H23.4473H23.4474H23.4474H23.4474H23.4474H23.4474L23.485 13.6279V10.7422C23.485 8.11896 21.3507 5.98475 18.7275 5.98475H12.1518C11.7973 5.98475 11.4763 6.1726 11.2931 6.48736C11.1357 6.75783 10.8464 6.92424 10.5335 6.92424H10.2729ZM7.45465 17.3785C7.94004 17.3785 8.33355 17.7721 8.33355 18.2574C8.33355 21.9166 11.3106 24.8938 14.9699 24.8935C18.6291 24.8935 21.6061 21.9165 21.6061 18.2573C21.6061 17.7719 21.9996 17.3784 22.485 17.3784H23.4244C23.7182 17.3784 23.996 17.2499 24.1867 17.0257C24.3799 16.7986 24.4591 16.5068 24.4099 16.2042C24.3346 15.7413 23.8576 15.3787 23.3238 15.3787H22.485C21.2287 15.3787 20.1661 14.5344 19.8345 13.3835L11.0375 11.9174C10.7559 11.8706 10.5566 11.9965 10.463 12.0757C10.3693 12.1549 10.2123 12.3307 10.2123 12.6164C10.2123 14.1418 8.97527 15.3788 7.45465 15.3788H6.61582C6.08203 15.3788 5.60508 15.7414 5.52973 16.2042C5.48051 16.5069 5.55984 16.7987 5.75297 17.0258C5.94363 17.25 6.22148 17.3785 6.51527 17.3785H7.45465ZM13.0312 16.3788V17.3181C13.0312 17.8035 12.6377 18.197 12.1523 18.197C11.667 18.197 11.2734 17.8035 11.2734 17.3181V16.3788C11.2734 15.8934 11.667 15.4999 12.1523 15.4999C12.6377 15.4999 13.0312 15.8934 13.0312 16.3788ZM17.7874 15.4999C17.302 15.4999 16.9085 15.8934 16.9085 16.3788V17.3181C16.9085 17.8035 17.302 18.197 17.7874 18.197C18.2728 18.197 18.6663 17.8035 18.6663 17.3181V16.3788C18.6663 15.8934 18.2728 15.4999 17.7874 15.4999ZM13.8259 20.1204C14.5645 20.5112 15.373 20.5111 16.1115 20.1204C16.5405 19.8933 17.0724 20.0571 17.2996 20.4861C17.5266 20.9151 17.3628 21.447 16.9338 21.674C16.3086 22.0049 15.6474 22.1727 14.9688 22.1727C14.2902 22.1727 13.629 22.0049 13.0038 21.674C12.5746 21.447 12.4109 20.9151 12.6379 20.4861C12.8649 20.057 13.3967 19.8933 13.8259 20.1204ZM56.5824 34.5028L53.4994 33.662C54.3563 33.3512 55.1819 32.9946 55.9682 32.5901C56.7585 32.1834 57.1334 31.2389 56.8402 30.393C56.567 29.6048 56.2414 28.3264 56.2414 26.712V18.2576C56.2414 12.0751 51.2116 7.04541 45.0291 7.04541C38.8466 7.04553 33.817 12.0754 33.817 18.2579V24.8333C33.817 25.3188 34.2105 25.7122 34.6959 25.7122C35.1813 25.7122 35.5748 25.3188 35.5748 24.8333V23.6456C35.8898 23.7681 36.2281 23.8335 36.5746 23.8335H36.6808C37.1218 28.0502 40.6976 31.3486 45.0292 31.3486C46.0403 31.3486 47.0093 31.1668 47.9078 30.8378V31.8529C47.9078 33.0931 48.7434 34.1871 49.9398 34.5135L52.0885 35.0994C50.9672 37.9724 48.1605 39.9241 45.0291 39.9241C44.4604 39.9241 43.8937 39.861 43.3447 39.7364C42.8712 39.6289 42.4005 39.9256 42.293 40.3991C42.1856 40.8724 42.4823 41.3433 42.9556 41.4507C43.632 41.6042 44.3296 41.682 45.029 41.682C48.9491 41.682 52.4569 39.1987 53.792 35.5642L56.1197 36.199C57.3689 36.5393 58.2412 37.6814 58.2412 38.976V42.6817C58.2412 43.233 57.7926 43.6815 57.2413 43.6815H54.3627V41.7423C54.3627 41.2569 53.9692 40.8634 53.4838 40.8634C52.9984 40.8634 52.6049 41.2569 52.6049 41.7423V53.9543C52.6049 54.4398 52.9984 54.8332 53.4838 54.8332C53.9692 54.8332 54.3627 54.4398 54.3627 53.9543V45.4393H57.2413C57.2543 45.4393 57.2673 45.4389 57.2802 45.4384L57.3018 45.4378V52.0755C57.3018 52.561 57.6953 52.9544 58.1807 52.9544C58.6661 52.9544 59.0596 52.561 59.0596 52.0755V44.7524C59.6349 44.2466 59.999 43.5061 59.999 42.6817V38.976C59.999 36.8908 58.594 35.0513 56.5824 34.5028ZM35.5749 18.2578C35.5749 13.0446 39.8161 8.80322 45.0293 8.80311C50.2424 8.80311 54.4837 13.0442 54.4837 18.2574V18.5345C54.1421 18.3964 53.7702 18.3179 53.3832 18.3179H52.5443C51.993 18.3179 51.5445 17.8693 51.5445 17.3181C51.5445 16.8885 51.2339 16.5218 50.8101 16.4511L41.386 14.8804C40.6691 14.7609 39.9406 14.9618 39.3863 15.4313C38.832 15.9009 38.5141 16.5868 38.5141 17.3181C38.5141 17.8694 38.0655 18.3179 37.5142 18.3179H36.6754C36.2883 18.3179 35.9165 18.3964 35.5749 18.5345V18.2578ZM38.393 22.9544C38.393 22.469 37.9995 22.0755 37.5141 22.0755H36.5747C36.2809 22.0755 36.0032 21.947 35.8124 21.7228C35.6193 21.4957 35.54 21.2039 35.5892 20.9013C35.6645 20.4384 36.1415 20.0758 36.6753 20.0758H37.5141C39.0347 20.0758 40.2718 18.8387 40.2718 17.3135C40.2718 17.0278 40.4288 16.852 40.5224 16.7728C40.6159 16.6935 40.8148 16.5675 41.097 16.6145L49.8939 18.0806C50.2255 19.2315 51.2882 20.0758 52.5444 20.0758H53.3833C53.9171 20.0758 54.394 20.4384 54.4694 20.9013C54.5186 21.2039 54.4394 21.4957 54.2461 21.7228C54.0555 21.9471 53.7776 22.0755 53.4838 22.0755H52.5444C52.0591 22.0755 51.6655 22.469 51.6655 22.9544C51.6655 26.6137 48.6885 29.5906 45.0293 29.5906C41.37 29.5906 38.393 26.6136 38.393 22.9544ZM53.3776 23.8333H53.4838C53.8305 23.8333 54.1687 23.7681 54.4837 23.6455V26.7119C54.4837 28.5709 54.8621 30.0528 55.1794 30.9685C55.1877 30.9927 55.178 31.0197 55.1641 31.0269C53.6746 31.7933 52.0308 32.3791 50.2777 32.7732C49.912 32.6189 49.6657 32.2576 49.6657 31.8526V29.9462C51.6979 28.5943 53.111 26.3824 53.3776 23.8333ZM43.0915 21.0759V22.0153C43.0915 22.5007 42.698 22.8942 42.2126 22.8942C41.7272 22.8942 41.3337 22.5007 41.3337 22.0153V21.0759C41.3337 20.5905 41.7272 20.197 42.2126 20.197C42.698 20.197 43.0915 20.5905 43.0915 21.0759ZM47.8477 20.197C47.3623 20.197 46.9688 20.5905 46.9688 21.0759V22.0153C46.9688 22.5007 47.3623 22.8942 47.8477 22.8942C48.333 22.8942 48.7266 22.5007 48.7266 22.0153V21.0759C48.7266 20.5905 48.333 20.197 47.8477 20.197ZM43.8878 24.817C44.6264 25.208 45.4348 25.208 46.1735 24.817C46.6024 24.59 47.1343 24.7539 47.3615 25.1829C47.5884 25.612 47.4246 26.1438 46.9956 26.3708C46.3703 26.7016 45.7092 26.8694 45.0307 26.8694C44.3522 26.8694 43.691 26.7016 43.0657 26.3708C42.6367 26.1438 42.4729 25.612 42.6999 25.1829C42.9268 24.7539 43.4586 24.5899 43.8878 24.817ZM30.0004 26.7727C24.3361 26.7727 19.7277 31.381 19.7277 37.0454V38.9242C19.7277 38.928 19.7279 38.9318 19.7282 38.9356L19.7283 38.9373L19.7288 38.9472C19.7352 39.5915 19.9631 40.2151 20.384 40.7101C20.9093 41.3277 21.6752 41.6819 22.4853 41.6819H22.5965C22.7939 43.3797 23.5623 44.9428 24.8094 46.153C25.2654 46.5955 25.7674 46.9714 26.3034 47.2789V48.7049C26.3034 49.1499 26.0171 49.5348 25.5908 49.6627L22.3624 50.6312C20.7865 51.104 19.7277 52.5271 19.7277 54.1724V54.8938C19.7277 55.3792 20.1212 55.7727 20.6066 55.7727C21.092 55.7727 21.4855 55.3792 21.4855 54.8938V54.1724C21.4855 53.3093 22.0408 52.563 22.8675 52.3149L24.4868 51.829C26.0158 53.1634 27.9575 53.8939 30.0003 53.8939C32.0448 53.8939 33.9841 53.1632 35.5131 51.8287L37.1334 52.3148C37.9601 52.5627 38.5154 53.3092 38.5154 54.1723V54.8937C38.5154 55.3791 38.9089 55.7726 39.3943 55.7726C39.8797 55.7726 40.2732 55.3791 40.2732 54.8937V54.1723C40.2732 52.527 39.2144 51.1039 37.6386 50.6311L34.4101 49.6626C33.9839 49.5347 33.6975 49.1497 33.6975 48.7048V47.2259C34.4729 46.7597 35.1613 46.1517 35.7309 45.4391H37.5156C39.0362 45.4391 40.2732 44.202 40.2732 42.6815V37.0451C40.2732 31.381 35.6648 26.7727 30.0004 26.7727ZM33.4544 51.1668C32.4234 51.7972 31.2364 52.1363 30.0004 52.1363C28.7654 52.1363 27.5781 51.797 26.5468 51.1665C27.4686 50.7051 28.0612 49.7677 28.0612 48.7051V48.003C28.6854 48.1698 29.3346 48.2577 29.9978 48.2577C30.0746 48.2577 30.1519 48.2565 30.2292 48.2542C30.8185 48.2365 31.391 48.1439 31.9398 47.9884V48.705C31.9397 49.7678 32.5325 50.7052 33.4544 51.1668ZM30.1763 46.4972C28.6194 46.5442 27.1485 45.9737 26.0334 44.8916C24.9179 43.8092 24.3035 42.3571 24.3035 40.8029C24.3035 40.3176 23.91 39.924 23.4246 39.924H22.4852C22.1914 39.924 21.9136 39.7955 21.7229 39.5713C21.5297 39.3441 21.4505 39.0524 21.4997 38.7498C21.575 38.2869 22.052 37.9244 22.5858 37.9244H23.4246C24.9452 37.9244 26.1822 36.6872 26.1822 35.1667V34.5912C26.1822 34.5812 26.1822 34.5603 26.2073 34.5422C26.2324 34.5242 26.2523 34.5306 26.2618 34.5339L32.9965 36.7787C34.6118 37.3172 35.697 38.8229 35.697 40.5273C35.6973 43.7277 33.2206 46.4058 30.1763 46.4972ZM38.5154 42.6818C38.5154 43.2332 38.0668 43.6817 37.5156 43.6817H36.7927C37.2167 42.7138 37.4551 41.6448 37.4551 40.5256C37.4551 38.0651 35.8868 35.8892 33.5525 35.111L26.8179 32.8662C26.2651 32.6819 25.6527 32.7752 25.1797 33.116C24.7067 33.4568 24.4246 34.0083 24.4246 34.5911V35.1666C24.4246 35.7178 23.976 36.1664 23.4247 36.1664H22.5859C22.2099 36.1664 21.8482 36.2402 21.5147 36.371C21.8599 31.9902 25.5324 28.5304 30.0004 28.5304C34.6956 28.5304 38.5154 32.3502 38.5154 37.0453V42.6818ZM27.1905 38.0453C27.6759 38.0453 28.0694 38.4388 28.0694 38.9242C28.0694 39.4096 27.6759 39.8031 27.1905 39.8031C26.7051 39.8031 26.3069 39.4096 26.3069 38.9242C26.3069 38.4388 26.6957 38.0453 27.1811 38.0453H27.1905ZM32.8272 38.0453H32.8179C32.3325 38.0453 31.9436 38.4388 31.9436 38.9242C31.9436 39.4096 32.3418 39.8031 32.8272 39.8031C33.3126 39.8031 33.7061 39.4096 33.7061 38.9242C33.7061 38.4388 33.3127 38.0453 32.8272 38.0453ZM30.0004 42.7419C30.4706 42.7419 30.9291 42.5625 31.2908 42.2365C31.6515 41.9115 32.2073 41.9407 32.5321 42.3012C32.857 42.6618 32.8281 43.2176 32.4674 43.5424C31.7822 44.1598 30.906 44.4997 30.0004 44.4997C29.0947 44.4997 28.2186 44.1598 27.5333 43.5424C27.1727 43.2176 27.1438 42.6619 27.4686 42.3012C27.7936 41.9406 28.3493 41.9117 28.7099 42.2365C29.0716 42.5624 29.5301 42.7419 30.0004 42.7419Z" fill="#49B3F7"/>
</svg>
