<svg width="60" height="60" viewBox="0 0 60 60" fill="none" xmlns="http://www.w3.org/2000/svg">
<path fill-rule="evenodd" clip-rule="evenodd" d="M59.9176 15.0865C59.8745 14.9893 59.8155 14.9007 59.7431 14.8246L58.1222 13.0744C57.8901 12.834 57.5489 12.7462 57.2352 12.8461L54.3114 13.7656L50.886 9.99883L58.5748 5.55989C59.0229 5.34603 59.2188 4.79607 59.0123 4.33173C58.9692 4.23455 58.9102 4.14593 58.8379 4.06983L56.6786 1.83134C56.4433 1.59686 56.1032 1.51411 55.7917 1.61573L46.0476 4.67226L42.7689 1.06403C41.9334 0.0624177 40.5732 -0.272247 39.3924 0.233317H39.3374C38.4472 0.613163 37.7403 1.34606 37.3739 2.26889C37.2815 2.50986 37.2159 2.76082 37.1782 3.01717L36.805 2.884C36.322 2.72293 35.8043 2.9983 35.6489 3.49911C35.4936 3.99992 35.7592 4.53655 36.2423 4.69762C36.7133 4.85616 37.1843 5.03371 37.6553 5.21761C37.797 5.44749 37.9632 5.66024 38.1507 5.85175L41.6067 9.25071L40.6158 12.6433C30.924 5.47618 17.4628 7.81122 10.5494 17.8588C3.63606 27.9063 5.88843 41.8614 15.5802 49.0285C25.272 56.1957 38.7332 53.8606 45.6466 43.8131C51.1597 35.8006 50.9673 24.9923 45.1729 17.1963L46.7388 14.2666L50.3722 17.8177L49.4975 20.8172C49.3921 21.1468 49.475 21.5098 49.7115 21.7557C49.7115 21.7557 51.5038 23.5947 51.5466 23.6581C51.9703 23.9127 52.513 23.763 52.7588 23.3237C52.7626 23.3169 52.7664 23.3099 52.77 23.303L55.1616 18.7562L59.4801 16.3148C59.9282 16.1008 60.1241 15.5508 59.9176 15.0865ZM14.2462 16.34C17.9338 12.5187 22.9357 10.3742 28.1497 10.3791C28.5576 10.3791 28.9652 10.3918 29.3731 10.4172C32.8413 13.7337 31.8198 16.7585 29.4954 19.4853C28.1237 20.9935 26.6522 22.4004 25.0913 23.696C22.8342 25.6872 20.73 27.5452 19.9348 29.4032C18.9928 31.61 19.684 33.6075 23.4887 35.3514C25.391 36.2265 26.4248 36.905 26.8285 37.4186C26.8344 37.4261 26.8403 37.4313 26.8462 37.4359L26.8256 37.4427L26.804 37.4503C25.8828 37.814 24.9023 37.9884 23.9169 37.964C19.3156 38.1664 16.0354 35.1247 13.4872 32.7617L13.4693 32.7451L13.4599 32.7364C11.6291 31.0471 10.1085 29.6441 8.52692 29.6315C8.78872 24.622 10.8255 19.8888 14.2462 16.34ZM47.8826 30.7856H47.8887C47.886 39.6238 42.4054 47.4595 34.3032 50.2091C34.0757 48.7229 34.3409 47.2005 35.0556 45.8907C36.0248 44.277 37.2684 42.859 38.7257 41.7054C44.3715 36.8225 44.6896 34.0958 44.9343 31.9968C45.0872 30.6714 45.2034 29.6822 47.7297 28.2427C47.8311 29.0863 47.8821 29.9355 47.8826 30.7856ZM46.7449 23.9243C47.0183 24.7226 47.2429 25.5381 47.4177 26.3657C43.5702 28.3949 43.399 29.8407 43.1665 31.8129L43.1662 31.816C42.9582 33.5912 42.6864 35.912 37.588 40.323C35.954 41.619 34.5647 43.2162 33.4897 45.0346C32.5525 46.7521 32.2276 48.7566 32.5722 50.6974C21.9612 53.2121 11.393 46.333 8.96733 35.3327C8.68993 34.0745 8.52814 32.792 8.4841 31.5022C9.41956 31.5022 10.621 32.6109 12.0884 33.9652L12.2643 34.1275C15.0658 36.7211 18.6503 40.0313 23.9903 39.8347C25.2485 39.8572 26.4977 39.6112 27.6604 39.1118C28.1505 38.8871 28.5215 38.4516 28.6758 37.9196C28.806 37.3262 28.6407 36.7046 28.2353 36.2645C27.6604 35.5353 26.4003 34.6728 24.2349 33.6709C21.6475 32.4851 21.0848 31.3309 21.5925 30.1515C22.1474 28.8053 23.8199 27.2921 25.6874 25.6025C25.8785 25.4296 26.0716 25.2549 26.2657 25.0784C27.8959 23.7126 29.4309 22.2294 30.8595 20.6394C33.4163 17.621 34.7314 14.3298 32.1318 10.7279C35.0209 11.3402 37.7392 12.6214 40.0836 14.4757L38.6768 19.2887C38.5729 19.6185 38.6555 19.9807 38.8909 20.2273C38.8909 20.2273 41.1724 22.5736 41.2458 22.6179C41.6696 22.8725 42.2123 22.7229 42.458 22.2836C42.4619 22.2768 42.4655 22.2698 42.4692 22.2628L44.2492 18.9273C45.2999 20.4654 46.1398 22.1471 46.7449 23.9243ZM54.9475 16.841L54.1585 17.2468C53.9819 17.3377 53.8396 17.4872 53.7548 17.6717L53.3633 18.4961L51.8402 21.3497L51.3937 20.8424L52.2806 17.8049C52.384 17.449 52.2705 17.0637 51.9931 16.8283L47.1669 12.1167C46.8175 11.7608 46.256 11.766 45.9127 12.1283L45.8993 12.1427L45.8885 12.1547C45.8274 12.2245 41.4844 20.3351 41.4844 20.3351L40.5363 19.3522L43.4968 9.23771C43.603 8.8799 43.4892 8.49117 43.2094 8.2548L39.368 4.50707C38.9429 4.13372 38.8016 3.51686 39.0193 2.98514C39.2144 2.52444 39.5708 2.15744 40.0164 1.95785H40.0469C40.5536 1.75508 41.1284 1.90791 41.4783 2.33833L45.1484 6.35874C45.3788 6.61525 45.7299 6.71369 46.0537 6.61239L55.8406 3.54952L56.7887 4.53243L49.0203 8.95869C48.5903 9.20188 48.4319 9.76055 48.6666 10.2062L48.6778 10.227C48.7145 10.2967 53.3939 15.4586 53.3939 15.4586C53.6257 15.7129 53.9767 15.8088 54.2992 15.7059L57.2414 14.7864L57.7001 15.262L54.9475 16.841ZM29.856 1.54553C30.7124 1.59626 31.5748 1.69138 32.4189 1.82455C32.9257 1.86307 33.3064 2.32028 33.2692 2.8455C33.232 3.37088 32.7912 3.76547 32.2844 3.72695H32.1437C31.3546 3.60012 30.5533 3.51134 29.7459 3.44793C29.2391 3.41638 28.853 2.96504 28.8834 2.43966C28.9138 1.91428 29.3492 1.51398 29.856 1.54553ZM25.366 1.66608C25.8728 1.61535 26.3233 1.99995 26.3722 2.52533C26.4212 3.05071 26.0502 3.51775 25.5434 3.56848C24.7482 3.65092 23.9469 3.7714 23.1578 3.92994H22.9804L22.9866 3.9553C22.4798 4.00429 22.0306 3.61826 21.9834 3.09288C21.9361 2.5675 22.3085 2.10189 22.8153 2.0529C23.6594 1.88168 24.5158 1.75486 25.366 1.66608ZM2.99714 17.6146C3.22514 17.1453 3.77704 16.9565 4.22968 17.1929C4.68233 17.4294 4.86446 18.0014 4.63645 18.4706C4.26332 19.2062 3.94525 19.9735 3.65164 20.7472L3.64981 20.7521C3.46324 21.2405 2.93001 21.4796 2.45886 21.2862C1.99061 21.0922 1.76108 20.5427 1.94504 20.056C2.257 19.2253 2.61178 18.4072 2.99714 17.6146ZM1.83984 23.7146C1.3615 23.5413 0.838205 23.8031 0.671063 24.299C0.646289 24.3725 0.630233 24.4491 0.623504 24.5266C0.439999 25.3954 0.299312 26.2768 0.195326 27.1583C0.129876 27.6738 0.475783 28.1483 0.972164 28.2236H1.08838C1.5528 28.2239 1.94413 27.8645 1.99979 27.3866C2.09766 26.5622 2.23223 25.7315 2.4035 24.9261C2.57065 24.4302 2.31817 23.8877 1.83984 23.7146ZM11.4435 51.915C11.4243 51.8973 11.4046 51.8803 11.3841 51.8641C10.7724 51.3378 10.1608 50.7734 9.59801 50.19C9.24048 49.8233 8.66489 49.8233 8.30736 50.19C7.94953 50.5615 7.94953 51.1629 8.30736 51.5344C8.91904 52.1685 9.53073 52.7582 10.2158 53.329C10.5925 53.6804 11.1726 53.6487 11.5117 53.2583C11.8505 52.8678 11.8201 52.2665 11.4435 51.915ZM5.55407 44.7936C5.9639 45.5038 6.41043 46.2014 6.88142 46.8735C7.15255 47.287 7.0686 47.8474 6.68951 48.1562C6.29099 48.4807 5.71418 48.4091 5.40115 47.996C4.89345 47.2794 4.41634 46.5311 3.97593 45.7701C3.97531 45.7694 3.97486 45.7684 3.9744 45.7676C3.71535 45.3161 3.85848 44.7324 4.294 44.4638L4.29579 44.4626L4.29645 44.4622C4.73197 44.1937 5.29502 44.3421 5.55407 44.7936ZM3.68223 40.8748C3.38862 40.1075 3.11948 39.3149 2.89316 38.5159C2.75201 38.0114 2.24294 37.721 1.75635 37.8673C1.74778 37.8698 1.73937 37.8725 1.73096 37.8754C1.24941 38.0279 0.97645 38.5544 1.11928 39.0549C1.36395 39.9046 1.64533 40.7543 1.9634 41.5914C2.15425 42.0835 2.69375 42.3219 3.16842 42.1241C3.64308 41.9262 3.87308 41.3669 3.68223 40.8748ZM2.03152 34.257L2.03121 34.2544C1.93334 33.4301 1.86606 32.593 1.83547 31.7686C1.81697 31.2433 1.39109 30.8331 0.884306 30.8523C0.377527 30.8715 -0.0180793 31.313 0.000424138 31.8384C0.000424138 32.7262 0.0982934 33.6203 0.208396 34.5018C0.271094 34.9628 0.646514 35.3088 1.09534 35.3198H1.23602C1.73883 35.254 2.09498 34.7781 2.03152 34.257ZM8.21613 11.4381C7.83444 11.0879 7.25105 11.1249 6.91325 11.5206C6.3505 12.1864 5.81222 12.8903 5.31064 13.6132C5.01336 14.0386 5.10496 14.6334 5.5154 14.9416C5.67122 15.0586 5.8584 15.1218 6.05077 15.1225V15.1351C6.34606 15.1362 6.62377 14.9899 6.79703 14.742C7.26802 14.0698 7.7696 13.4103 8.29565 12.7888C8.63345 12.3931 8.59782 11.7885 8.21613 11.4381ZM13.4251 6.90589C13.1381 6.50179 12.5977 6.39827 12.1903 6.66952C11.4868 7.17048 10.7956 7.71584 10.135 8.28022C9.74476 8.61647 9.69139 9.21683 10.0157 9.62141C10.3401 10.026 10.9192 10.0813 11.3095 9.74507C11.9211 9.21239 12.5695 8.70509 13.2301 8.23583C13.6383 7.92447 13.7254 7.32902 13.4251 6.90589ZM16.4987 6.13636C16.5002 6.13654 16.5017 6.13672 16.5032 6.13672H16.4848L16.4876 6.13656L16.4894 6.13637L16.4912 6.13617C16.1375 6.13313 15.8162 5.92 15.6668 5.58687C15.453 5.11064 15.6521 4.54483 16.1116 4.3232C16.8823 3.9237 17.6836 3.59395 18.4849 3.28957C18.5258 3.27102 18.5678 3.25548 18.6108 3.24327C19.0995 3.10408 19.6045 3.40212 19.7386 3.90864C19.8728 4.41515 19.5855 4.93863 19.0966 5.07782C18.3442 5.36318 17.598 5.68659 16.8762 6.04171C16.7577 6.10124 16.6282 6.13308 16.4967 6.13614L16.4987 6.13636ZM29.8568 58.0407C30.3636 58.0075 30.8003 58.4063 30.8324 58.9317C30.8645 59.4571 30.4798 59.91 29.973 59.9431C29.398 60.0002 28.7864 60.0002 28.1747 60.0002H27.3978C26.8911 59.9863 26.4913 59.549 26.5048 59.0237C26.5182 58.4983 26.94 58.0839 27.4468 58.0978C28.2481 58.1232 29.0555 58.1042 29.8568 58.0407ZM54.8472 36.8955C54.3557 36.766 53.8558 37.074 53.7308 37.5835C53.5351 38.3889 53.2965 39.1879 53.0274 39.9678C52.8679 40.4577 53.115 40.9901 53.584 41.1664C54.061 41.3438 54.5864 41.0866 54.7576 40.5922L54.7585 40.5893C55.046 39.7522 55.2967 38.8962 55.5108 38.0528C55.6359 37.5432 55.3386 37.0252 54.8472 36.8955ZM55.4864 23.3916C55.7005 24.2477 55.8779 25.1291 56.0186 26.0042C56.0995 26.5226 55.76 27.0108 55.2601 27.095H55.1072C54.6677 27.0902 54.2932 26.7631 54.2141 26.315C54.0796 25.4969 53.9144 24.6726 53.7126 23.8735C53.6081 23.3875 53.8829 22.9001 54.3428 22.7562C54.8278 22.6042 55.3399 22.8887 55.4864 23.3916ZM52.5679 43.5702L52.5852 43.5804C53.0221 43.8465 53.1683 44.4294 52.9115 44.8825C52.4956 45.6561 52.0429 46.4234 51.5658 47.159C51.2736 47.5898 50.6998 47.6935 50.2843 47.3905C49.8688 47.0875 49.7688 46.4927 50.0611 46.062C50.5137 45.3771 50.9358 44.6605 51.3211 43.9313C51.5649 43.485 52.1061 43.3195 52.5445 43.5571L52.5592 43.5652L52.5679 43.5702ZM55.4858 29.6949C54.9792 29.6878 54.5628 30.1077 54.5558 30.633C54.5556 30.6458 54.5556 30.6586 54.5561 30.6715V30.7793C54.5561 31.61 54.5194 32.4471 54.446 33.2778C54.4001 33.8009 54.7718 34.2637 55.2765 34.3113L55.2779 34.3114H55.3635C55.8475 34.3162 56.2517 33.9303 56.2871 33.43C56.3667 32.5485 56.4034 31.6544 56.4034 30.7666V30.6398C56.4 30.1169 55.9902 29.6949 55.4858 29.6949ZM20.9198 57.0641C21.6844 57.305 22.4734 57.4826 23.2686 57.6221C23.7754 57.6713 24.1478 58.1369 24.1005 58.6623C24.0533 59.1876 23.6041 59.5737 23.0974 59.5247H22.9261C22.082 59.3408 21.2379 59.1315 20.4182 58.8905C20.382 58.8821 20.346 58.8717 20.311 58.8588C19.833 58.6844 19.5816 58.1415 19.7498 57.6459C19.918 57.1503 20.4417 56.8898 20.9198 57.0641ZM37.4661 57.3333C37.3002 56.8662 36.815 56.6107 36.3533 56.7473V56.7727C35.5948 57.0327 34.8119 57.2546 34.0351 57.4068C33.5402 57.5224 33.2293 58.0321 33.3408 58.5451C33.4523 59.0581 33.9439 59.3804 34.4388 59.2648C35.2707 59.0682 36.1087 58.8273 36.9222 58.5546C37.3978 58.3729 37.6412 57.8261 37.4661 57.3333ZM14.8399 54.3627C15.5311 54.7685 16.2468 55.1744 16.9747 55.5485C17.4342 55.7727 17.6313 56.3406 17.4151 56.8168C17.1989 57.293 16.6511 57.4975 16.1917 57.2734C15.4149 56.8739 14.6503 56.4553 13.9102 56.0051C13.4727 55.7389 13.3262 55.1555 13.5829 54.702C13.8397 54.2484 14.4024 54.0965 14.8399 54.3627ZM48.6864 49.4298C48.3188 49.0818 47.7504 49.1012 47.4057 49.4737H47.4118C46.8613 50.1079 46.2802 50.6659 45.6869 51.2176C45.3086 51.5678 45.2757 52.1698 45.6135 52.562C45.9513 52.9542 46.5319 52.9883 46.9102 52.6381C47.5219 52.0483 48.1703 51.4205 48.7453 50.7737C49.0871 50.3856 49.0606 49.784 48.6864 49.4298ZM42.3663 53.846C42.8014 53.5765 43.3648 53.7234 43.6247 54.1743C43.8848 54.6252 43.7429 55.2092 43.308 55.4789C42.5862 55.9545 41.8339 56.4047 41.0754 56.8106C40.6244 57.0504 40.0711 56.8659 39.8398 56.3984C39.6084 55.9309 39.7864 55.3573 40.2374 55.1174C40.9469 54.7116 41.6504 54.2931 42.3232 53.8492V53.8745C42.3322 53.8681 42.3414 53.8619 42.3506 53.8559C42.3558 53.8525 42.3611 53.8492 42.3663 53.846Z" fill="#49B3F7"/>
</svg>
