<svg width="60" height="60" viewBox="0 0 60 60" fill="none" xmlns="http://www.w3.org/2000/svg">
<path fill-rule="evenodd" clip-rule="evenodd" d="M18.1415 23.3251C16.7201 24.9275 15.6169 26.0121 15.4856 26.1402C15.2877 26.3335 15.0182 26.4423 14.7372 26.4423C14.4561 26.4423 14.1866 26.3335 13.9887 26.1392C13.9773 26.128 13.9512 26.1025 13.9118 26.0634C13.295 25.4539 9.64764 21.7869 7.00646 17.7709C3.79482 22.0939 2.10531 27.1704 2.10531 32.5429C2.10531 46.5613 13.9108 57.9663 28.4217 57.9663C42.1818 57.9663 53.5092 47.7121 54.6444 34.6977C53.589 35.9819 52.7101 36.9248 52.3999 37.2514L52.3538 37.3001C52.1794 37.4828 51.9419 37.5968 51.6881 37.6222C51.6685 37.6241 51.6487 37.6256 51.6288 37.6265C51.6122 37.6272 51.5955 37.6276 51.5788 37.6276C51.2851 37.6276 51.0051 37.5097 50.8051 37.3012C50.0229 36.4815 43.1575 29.1606 43.1575 24.4075C43.1575 20.6008 45.3067 17.3299 48.3553 15.952C43.3426 10.3216 36.1584 7.11947 28.4217 7.11947C27.1978 7.11947 25.9602 7.20455 24.7257 7.37372C25.0749 8.44467 25.264 9.58989 25.264 10.7795C25.264 11.5004 25.1163 12.2762 24.8571 13.0825C24.0054 15.7324 21.9496 18.7121 19.9785 21.1565C19.992 21.2213 19.9991 21.2882 19.9991 21.3566C19.9991 22.525 20.3254 23.6142 20.9886 24.682C21.2833 25.1701 21.1254 25.7904 20.6202 26.0853C20.4623 26.1769 20.2728 26.2277 20.0833 26.2277C19.7149 26.2277 19.3675 26.0436 19.178 25.7294C18.699 24.9524 18.3529 24.1498 18.1415 23.3251ZM23.8798 5.44038C22.0642 2.19286 18.6462 0 14.7375 0C8.93312 0 4.21091 4.83553 4.21091 10.7795C4.21091 12.3052 4.87249 14.0765 5.85171 15.8625C2.07359 20.6327 0 26.5278 0 32.5429C0 47.683 12.7498 60.0001 28.4217 60.0001C44.0936 60.0001 56.8434 47.683 56.8444 32.5429C56.8444 32.3009 56.8388 32.0593 56.8306 31.8182C58.5049 29.4033 60 26.6257 60 24.4075C60 19.3604 56.222 15.255 51.5788 15.255C51.2315 15.255 50.8891 15.278 50.5528 15.3226C45.1225 8.80843 37.0938 5.08559 28.4227 5.08559C26.9173 5.08559 25.3929 5.20469 23.8798 5.44038ZM22.2756 6.88333C20.8934 4.01125 18.0334 2.03489 14.7375 2.03489C10.0942 2.03489 6.31622 5.95721 6.31622 10.7805C6.31622 12.0658 6.97277 13.6761 7.95197 15.357C7.9778 15.3904 8.00166 15.4256 8.02334 15.4624C10.0434 18.8997 13.2887 22.4386 14.7424 23.9518C15.2505 23.4276 15.8389 22.7972 16.4637 22.0937C16.6177 21.9204 16.7739 21.7426 16.9317 21.5609C19.7888 18.2699 23.1587 13.6891 23.1587 10.7805C23.1587 10.4627 23.1423 10.1488 23.1103 9.83967C23.0072 8.8587 22.742 7.90391 22.3184 6.99133C22.3019 6.95597 22.2877 6.9199 22.2756 6.88333ZM54.845 30.9966C53.6449 32.6832 52.3658 34.1866 51.5769 35.0761C49.2916 32.5154 45.2652 27.387 45.2652 24.4074C45.2652 21.0169 47.4063 18.081 50.3548 17.4251C50.3745 17.4207 50.3939 17.4159 50.4132 17.4105C50.791 17.3307 51.1807 17.2889 51.5788 17.2889C55.0609 17.2889 57.8947 20.4831 57.8947 24.4075C57.8947 26.1745 56.4762 28.6999 54.845 30.9966ZM9.47369 10.1703C9.47369 12.974 11.8348 15.255 14.737 15.255C17.6391 15.255 20.0002 12.974 20.0002 10.1703C20.0002 7.36658 17.6391 5.08559 14.737 5.08559C11.8348 5.08559 9.47369 7.36658 9.47369 10.1703ZM11.579 10.1703C11.579 8.48826 12.9959 7.11947 14.737 7.11947C16.4781 7.11947 17.8949 8.48826 17.8949 10.1703C17.8949 11.8523 16.4781 13.2211 14.737 13.2211C12.9959 13.2211 11.579 11.8523 11.579 10.1703ZM51.5791 27.4583C49.2569 27.4583 47.3685 25.634 47.3685 23.3906C47.3685 21.1472 49.2569 19.3229 51.5791 19.3229C53.9012 19.3229 55.7897 21.1472 55.7897 23.3906C55.7897 25.634 53.9002 27.4583 51.5791 27.4583ZM51.5791 21.3567C50.418 21.3567 49.4738 22.2689 49.4738 23.3906C49.4738 24.5123 50.418 25.4245 51.5791 25.4245C52.7401 25.4245 53.6844 24.5123 53.6844 23.3906C53.6844 22.2689 52.7401 21.3567 51.5791 21.3567ZM45.7786 35.5428H45.8207C46.3892 35.5428 46.8523 35.1157 46.8734 34.5666C46.8839 34.291 46.7892 34.0368 46.5892 33.8334C46.3997 33.6402 46.1365 33.5283 45.8628 33.5181C44.4733 33.4673 43.0838 33.3747 41.7259 33.2425C41.1364 33.1927 40.6311 33.5893 40.5785 34.1486C40.568 34.1791 40.568 34.2198 40.568 34.2503C40.568 34.7801 40.9785 35.2164 41.5154 35.2673C42.9049 35.3995 44.347 35.491 45.7786 35.5428ZM36.21 34.5147C36.2837 34.5361 36.3468 34.5361 36.41 34.5361C36.9153 34.5361 37.3468 34.1903 37.4416 33.7113C37.5574 33.1622 37.1784 32.6334 36.61 32.5215C35.2205 32.2571 33.8731 31.9531 32.6099 31.5961C32.0625 31.4436 31.4625 31.769 31.3046 32.2978C31.273 32.3802 31.2625 32.4809 31.2625 32.5734C31.2625 33.0198 31.5783 33.4276 32.0309 33.5497C33.3468 33.9147 34.7573 34.2402 36.21 34.5147ZM26.9361 31.7588C27.0729 31.8209 27.2203 31.8504 27.3782 31.8504C27.7887 31.8504 28.1677 31.6175 28.3361 31.2493C28.5782 30.7409 28.3466 30.1409 27.8203 29.908C26.515 29.3284 25.3361 28.6877 24.3255 27.9962C23.8729 27.6799 23.1886 27.7928 22.8623 28.2392C22.736 28.4121 22.6728 28.6155 22.6728 28.829C22.6728 29.1555 22.8413 29.4697 23.115 29.6538C23.115 29.6639 23.1255 29.6639 23.1255 29.6639C24.2308 30.4175 25.515 31.1182 26.9361 31.7588Z" fill="#49B3F7"/>
</svg>
