<svg width="60" height="60" viewBox="0 0 60 60" fill="none" xmlns="http://www.w3.org/2000/svg">
<path fill-rule="evenodd" clip-rule="evenodd" d="M31.015 1.01683V2.03378C31.015 2.59542 30.5608 3.05073 30.0006 3.05073C29.4404 3.05073 28.9863 2.59542 28.9863 2.03378V1.01683C28.9863 0.455183 29.4404 -0.000121024 30.0006 -0.000121024C30.5608 -0.000121024 31.015 0.455183 31.015 1.01683ZM53.5126 29.827C54.4851 29.8275 55.3204 30.5199 55.5037 31.4775L59.9445 54.3345C60.1176 55.2297 59.8822 56.1556 59.3028 56.8586C58.7234 57.5615 57.8607 57.9678 56.9512 57.966H35.7728C34.9086 59.3704 32.3809 59.9999 30.0002 59.9999C27.5942 59.9999 25.0422 59.3551 24.2023 57.966H3.04931C2.13953 57.9678 1.27665 57.5615 0.697208 56.8583C0.117761 56.1551 -0.117469 55.2288 0.0559976 54.3334L4.49778 31.4704C4.68273 30.5148 5.51704 29.8246 6.48791 29.8239H8.45166L8.5957 28.9555C8.74198 28.0829 9.43116 27.4034 10.3038 27.2714C10.4601 27.2483 10.6222 27.227 10.7853 27.2057C10.8953 27.1912 11.0058 27.1767 11.1153 27.1616C10.3607 24.7958 10.7186 22.2144 12.0881 20.1446C12.0238 19.8598 11.9898 19.5691 11.9866 19.2771C11.9876 17.593 12.9952 16.0735 14.5438 15.4209C14.6381 13.8841 15.4244 12.4738 16.6807 11.5882C17.9369 10.7026 19.5267 10.438 21.001 10.869C22.3288 9.15253 24.3707 8.14432 26.5373 8.13544C27.8819 8.1368 29.1974 8.5285 30.3248 9.26323C31.2198 8.41674 32.4448 8.0148 33.6658 8.16705C34.8867 8.3193 35.9762 9.00986 36.637 10.0504C36.6785 10.049 36.7188 10.0458 36.7594 10.0426L36.7594 10.0426C36.8132 10.0384 36.8673 10.0341 36.9251 10.0341C41.0609 10.0591 44.5977 13.0219 45.3573 17.0978C46.5455 17.3517 47.563 18.1148 48.1416 19.1858C48.7202 20.2568 48.8018 21.5281 48.3648 22.6646C49.1919 24.0212 49.4679 25.6445 49.1357 27.1992C49.2092 27.2093 49.2832 27.2186 49.3573 27.2278L49.3574 27.2278L49.3574 27.2278L49.3575 27.2278L49.3575 27.2279L49.3576 27.2279L49.3576 27.2279L49.3577 27.2279C49.4767 27.2427 49.5962 27.2577 49.7149 27.2765C50.5831 27.4132 51.2662 28.0923 51.4099 28.9616L51.5539 29.827H53.5126ZM14.0925 18.7069C13.8373 19.6358 14.2304 20.6214 15.054 21.1178V21.1138C15.5261 21.4069 15.6753 22.0262 15.3887 22.5031C15.1022 22.98 14.4864 23.1372 14.0072 22.8558C13.7328 22.6853 13.4795 22.4829 13.2525 22.2527C12.3439 24.3899 12.7001 26.8567 14.176 28.6477C15.6518 30.4387 18.0008 31.2549 20.2656 30.7636C20.2078 30.4276 20.177 30.0876 20.1733 29.7466C18.3849 29.5523 17.0283 28.0407 17.0238 26.2371C17.0227 25.673 17.4755 25.2136 18.0382 25.208C18.3058 25.205 18.5635 25.3094 18.754 25.4979C18.9445 25.6864 19.052 25.9434 19.0525 26.2117V26.2371C19.0653 27.039 19.6951 27.694 20.4939 27.7361C20.6374 27.2793 20.8321 26.8403 21.0741 26.4273C21.2609 26.1147 21.5999 25.9257 21.9633 25.9316C22.3268 25.9375 22.6595 26.1373 22.8362 26.4558C23.0128 26.7743 23.0066 27.1632 22.8197 27.4758C21.6666 29.4118 22.1784 31.9103 23.9993 33.2339C25.8203 34.5575 28.3479 34.2685 29.8248 32.5677C30.1055 32.241 30.5611 32.1273 30.9618 32.2839C32.029 32.7082 33.1788 32.8821 34.3233 32.7924C34.9174 32.7533 35.5049 32.6451 36.0741 32.47C36.4205 32.3632 36.7975 32.4498 37.063 32.6972C37.3285 32.9446 37.4422 33.3152 37.3612 33.6694C37.2803 34.0236 37.017 34.3076 36.6705 34.4144C36.1619 34.5652 35.6418 34.674 35.1155 34.7399C35.4746 35.4558 36.3206 36.1138 38.5126 36.85C39.6673 37.2179 40.696 37.9032 41.4815 38.828C41.7947 39.2191 42.3245 39.3618 42.791 39.1809C43.1943 39.0086 43.4562 38.6116 43.4564 38.1721C43.4564 38.0605 43.4386 37.9496 43.4037 37.8436C43.2131 37.2366 42.9595 36.6514 42.647 36.0975C42.0688 36.3404 41.4652 36.5171 40.8476 36.6243C40.7942 36.6324 40.7403 36.6365 40.6863 36.6365C40.1585 36.6345 39.7204 36.2271 39.6788 35.6996C39.6373 35.1721 40.0061 34.7008 40.527 34.6158C42.2015 34.3425 43.7017 33.4202 44.7041 32.048C43.1456 32.5208 41.4645 32.365 40.0188 31.6138C39.5915 31.3914 39.1923 31.1182 38.83 30.8002C38.4252 30.9632 37.9933 31.0484 37.5571 31.0514C36.2169 31.055 34.9913 30.2947 34.3964 29.0907C34.2342 28.7657 34.2573 28.3787 34.4569 28.0754C34.6566 27.7721 35.0025 27.5986 35.3643 27.6203C35.7261 27.642 36.0489 27.8555 36.211 28.1805C36.4127 28.5652 36.7676 28.8461 37.1876 28.9535C37.6076 29.0609 38.0534 28.9848 38.4142 28.7439C39.0286 28.3148 39.2366 27.4991 38.9031 26.827C38.74 26.5023 38.7621 26.1152 38.9609 25.8113C39.1598 25.5074 39.5053 25.3329 39.8672 25.3536C40.2292 25.3743 40.5526 25.5871 40.7157 25.9117C41.2982 27.0618 41.195 28.4412 40.4479 29.4914C40.604 29.6054 40.7681 29.7081 40.9389 29.7985C42.6825 30.6697 44.7905 30.2818 46.112 28.8466L46.1363 28.8212C47.1899 27.6405 47.5188 25.9784 46.9944 24.4839C46.7596 24.669 46.5056 24.8282 46.2367 24.9588C46.1023 25.0227 45.9554 25.0557 45.8067 25.0555C45.3357 25.0508 44.9299 24.7218 44.8268 24.261C44.7238 23.8003 44.9506 23.329 45.3745 23.1232C45.7788 22.9328 46.1143 22.6216 46.3351 22.2324C46.8293 21.3509 46.6419 20.2431 45.8855 19.5743C45.1291 18.9055 44.0094 18.8575 43.1988 19.4592C42.9089 19.6772 42.525 19.7235 42.1917 19.5808C41.8585 19.4381 41.6265 19.128 41.5831 18.7673C41.5398 18.4065 41.6917 18.05 41.9816 17.8321C42.3764 17.5364 42.821 17.3142 43.2941 17.1761C42.6339 14.3348 40.1916 12.2649 37.2872 12.0853C37.289 12.1199 37.2938 12.1538 37.2986 12.1876L37.2986 12.1877C37.3046 12.2302 37.3106 12.2725 37.3106 12.3161C37.3106 12.8778 36.8564 13.3331 36.2962 13.3331C35.736 13.3331 35.2819 12.8778 35.2819 12.3161C35.2819 11.1347 34.3266 10.177 33.1482 10.177C31.9699 10.177 31.0146 11.1347 31.0146 12.3161C31.0146 12.8778 30.5604 13.3331 30.0002 13.3331C29.44 13.3331 28.9859 12.8778 28.9859 12.3161C28.9917 11.8616 29.0722 11.4111 29.2243 10.9829C28.4262 10.4562 27.4927 10.1736 26.5373 10.1693C24.7818 10.1772 23.1586 11.1059 22.2588 12.6171C22.0249 13.0148 21.8477 13.4434 21.7324 13.8904C21.5828 14.4226 21.0364 14.7376 20.5024 14.5993C19.9683 14.461 19.6424 13.9202 19.7686 13.3819C19.8289 13.1662 19.9 12.9538 19.9816 12.7453C19.8595 12.7245 19.7362 12.7109 19.6124 12.7046C18.16 12.7086 16.9073 13.7282 16.6049 15.1524C17.749 15.2662 18.7928 15.8566 19.4816 16.7795C19.6975 17.0713 19.7419 17.4564 19.5979 17.7898C19.4538 18.1232 19.1434 18.3542 18.7833 18.3959C18.4233 18.4375 18.0685 18.2835 17.8525 17.9917C17.455 17.4479 16.822 17.1273 16.1495 17.1293C15.1885 17.1331 14.3476 17.778 14.0925 18.7069ZM11.7421 29.1302L11.7418 29.1303L11.7417 29.1303L11.7417 29.1303L11.7416 29.1303L11.7416 29.1303L11.7416 29.1303L11.7416 29.1303L11.7415 29.1303C11.3545 29.1808 10.9677 29.2313 10.5909 29.287L6.93016 51.3701C14.0888 48.9769 21.8291 48.9798 28.9859 51.3782V38.6439C28.9859 38.0823 29.44 37.627 30.0002 37.627C30.5604 37.627 31.0146 38.0823 31.0146 38.6439V51.3741C38.1722 48.9779 45.9127 48.9779 53.0703 51.3741L49.4086 29.2921C49.1419 29.2476 48.8764 29.2143 48.6112 29.1811C48.5365 29.1717 48.4618 29.1624 48.3871 29.1527C48.2143 29.441 48.0189 29.7151 47.8029 29.9724C47.3586 32.0551 46.1571 33.8974 44.4322 35.1405C44.8004 35.7981 45.1008 36.4915 45.3289 37.21C45.4319 37.5202 45.484 37.8451 45.4831 38.1721C45.483 39.4257 44.7371 40.5584 43.5873 41.0511C43.2065 41.2133 42.797 41.297 42.3833 41.2972C41.4372 41.2907 40.5415 40.8689 39.9326 40.1429C39.3849 39.5037 38.6695 39.0313 37.8674 38.7792C34.8924 37.7795 33.4764 36.6507 32.9865 34.7877C32.2688 34.7383 31.5588 34.6094 30.8695 34.4033C29.4216 35.7559 27.4276 36.3548 25.4764 36.0233C23.5251 35.6917 21.8394 34.4675 20.9169 32.7121C17.4835 33.5574 13.8965 32.0985 12.0211 29.0938L11.7421 29.1302ZM2.04613 54.724C1.98934 55.0199 2.06747 55.3257 2.25914 55.5579C2.45332 55.795 2.7433 55.9323 3.04931 55.9321H23.9974L24.2997 52.2456C18.7142 51.1885 12.9533 51.555 7.54586 53.3114C6.87283 53.5226 6.13872 53.3695 5.6055 52.9068C5.07228 52.4441 4.8159 51.7376 4.92786 51.0395L8.11085 31.8609H6.48791L2.04613 54.724ZM25.949 56.9196C26.1549 57.2419 27.5567 57.966 30.0002 57.966C32.4438 57.966 33.8456 57.2419 34.0515 56.9185L33.7026 52.6921C32.5873 52.9726 31.4961 53.3419 30.4395 53.7965C30.3026 53.8632 30.1524 53.898 30.0002 53.8982C29.8485 53.8973 29.6988 53.8626 29.562 53.7965C28.5047 53.3445 27.4133 52.9776 26.2979 52.6992L25.949 56.9196ZM56.9512 55.9321C57.2572 55.9323 57.5472 55.795 57.7413 55.5579C57.9344 55.326 58.0137 55.0196 57.9574 54.7229L53.5146 31.8619H51.8917L55.0716 51.0365C55.1848 51.7334 54.9305 52.4394 54.3993 52.903C53.8681 53.3666 53.1356 53.5218 52.4627 53.3134C47.0538 51.5532 41.2904 51.1836 35.7018 52.2385L36.0061 55.9321H56.9512ZM26.5664 24.5054C26.1909 24.0889 26.2232 23.4461 26.6384 23.0695C27.0538 22.6931 27.6949 22.7254 28.0706 23.1417C29.4592 24.6327 31.7225 24.8914 33.4101 23.7519C34.2873 23.1465 34.891 22.2187 35.0899 21.1698C35.1522 20.8074 35.4049 20.5071 35.7506 20.3843C36.0964 20.2614 36.4813 20.3353 36.7574 20.5775C37.0334 20.8196 37.1575 21.1923 37.082 21.5522C36.5932 24.0681 34.5964 26.0145 32.0742 26.4336C31.3324 28.4031 29.4483 29.7033 27.3484 29.6949C26.7882 29.6949 26.3341 29.2396 26.3341 28.678C26.3341 28.1163 26.7882 27.661 27.3484 27.661C28.3292 27.6625 29.2497 27.1867 29.8173 26.3847C28.564 26.1153 27.4268 25.4579 26.5664 24.5054ZM23.1027 21.9659C23.6629 21.9659 24.117 21.5106 24.117 20.9489C24.117 20.2477 24.3949 19.5751 24.8895 19.0793C25.384 18.5834 26.0548 18.3048 26.7543 18.3048C27.3145 18.3048 27.7686 17.8495 27.7686 17.2879C27.7686 16.7262 27.3145 16.2709 26.7543 16.2709C24.1785 16.2737 22.0911 18.3665 22.0883 20.9489C22.0883 21.2186 22.1952 21.4773 22.3854 21.668C22.5757 21.8587 22.8337 21.9659 23.1027 21.9659ZM46.646 7.29746L45.6317 8.31441C45.368 8.56974 45.2623 8.94785 45.3551 9.3034C45.4479 9.65896 45.7249 9.93663 46.0795 10.0297C46.4342 10.1228 46.8113 10.0167 47.066 9.75238L48.0803 8.73543C48.344 8.4801 48.4498 8.10199 48.3569 7.74644C48.2641 7.39088 47.9871 7.11321 47.6325 7.02014C47.2779 6.92708 46.9007 7.0331 46.646 7.29746ZM14.5901 9.42254C14.4331 9.80249 14.0633 10.0503 13.6531 10.0503C13.3841 10.0503 13.1262 9.94311 12.936 9.75238L11.9217 8.73543C11.658 8.4801 11.5522 8.10199 11.6451 7.74644C11.7379 7.39088 12.0148 7.11321 12.3695 7.02014C12.7241 6.92708 13.1013 7.0331 13.3559 7.29746L14.3703 8.31441C14.6603 8.60525 14.747 9.04259 14.5901 9.42254ZM21.4606 5.77107C21.5939 5.77078 21.7258 5.74454 21.8491 5.69378C22.0977 5.59053 22.2952 5.39247 22.3981 5.14319C22.5011 4.8939 22.501 4.61384 22.3979 4.36463L21.2324 1.54564C21.0989 1.2023 20.7905 0.958226 20.4265 0.907677C20.0624 0.857129 19.6995 1.00801 19.4779 1.30207C19.2564 1.59612 19.2108 1.98733 19.3589 2.32463L20.5234 5.14361C20.6805 5.52354 21.0504 5.77117 21.4606 5.77107ZM38.7673 1.54559C38.9817 1.02709 39.5746 0.780847 40.092 0.995421C40.3409 1.09866 40.5386 1.2969 40.6415 1.54642C40.7444 1.79594 40.7442 2.07627 40.6408 2.32559L39.4763 5.14458C39.3192 5.5245 38.9493 5.77214 38.539 5.77204C38.4058 5.77175 38.2738 5.7455 38.1505 5.69475C37.9017 5.59151 37.704 5.39327 37.601 5.14375C37.4981 4.89422 37.4984 4.6139 37.6018 4.36458L38.7673 1.54559ZM50.6176 17.8798C50.751 17.8796 50.883 17.853 51.0061 17.8015L53.8168 16.6341C54.1517 16.4951 54.3871 16.1876 54.4345 15.8274C54.4819 15.4671 54.334 15.109 54.0465 14.8877C53.759 14.6665 53.3757 14.6158 53.0408 14.7547L50.2291 15.9222C49.7804 16.107 49.525 16.5844 49.6197 17.0613C49.7143 17.5383 50.1325 17.8813 50.6176 17.8798ZM10.3204 17.2514C10.1058 17.7704 9.51228 18.0167 8.99465 17.8016L6.18392 16.6341C5.66629 16.4193 5.42038 15.8244 5.63466 15.3055C5.84893 14.7865 6.44226 14.54 6.95989 14.7548L9.77163 15.9222C10.2893 16.1374 10.5349 16.7324 10.3204 17.2514Z" fill="#49B3F7"/>
</svg>
