<svg width="60" height="60" viewBox="0 0 60 60" fill="none" xmlns="http://www.w3.org/2000/svg">
<g clip-path="url(#clip0_320_78441)">
<path d="M52.3746 4.70915C52.0139 4.38455 51.4582 4.41373 51.1334 4.77465C50.8087 5.13547 50.838 5.69115 51.1989 6.01587C51.1993 6.0161 51.1995 6.01646 51.1999 6.01669L40.0993 17.1172L35.0366 12.0544C37.7332 9.08422 39.2582 5.41893 39.3151 1.7786C42.379 1.63529 45.318 2.34332 47.8197 3.65988C48.2496 3.88616 48.7807 3.72082 49.0067 3.29145C49.2329 2.86186 49.0678 2.33043 48.6384 2.10438C41.4782 -1.6638 32.7531 -0.251028 27.118 5.37862C22.6622 9.83444 20.66 16.4585 22.3126 22.9124C11.1829 21.6214 1.54688 30.3623 1.54688 41.3936C1.54688 46.12 3.32433 50.6256 6.53647 54.0736C6.86704 54.4287 7.42332 54.4486 7.77862 54.1176C8.13369 53.7867 8.15349 53.2307 7.82256 52.8754C7.54753 52.5802 7.28434 52.2765 7.03286 51.9649H10.6139C11.718 51.9649 12.7022 52.6704 13.0475 53.733L14.1556 57.1431C13.0034 56.7043 11.8974 56.1375 10.8566 55.4474C10.4519 55.179 9.90657 55.2899 9.63833 55.6943C9.3701 56.0989 9.4806 56.6442 9.88512 56.9124C12.9177 58.9228 16.492 60.0001 20.1535 60.0001C32.2778 60.0001 41.2875 48.476 38.1384 36.6135C43.8372 37.2215 49.276 35.1424 53.0805 31.3414C60.5044 23.9108 60.2083 11.7579 52.3746 4.70915ZM37.5508 1.9552C37.4389 5.045 36.0804 8.24776 33.7905 10.8084L29.0048 6.02267C31.349 3.91265 34.295 2.45898 37.5508 1.9552ZM27.7618 7.26576L32.5475 12.0514C29.9879 14.3405 26.7866 15.6989 23.6946 15.81C24.1986 12.5549 25.652 9.60944 27.7618 7.26576ZM23.5178 17.5738C27.1588 17.5169 30.8238 15.9927 33.7931 13.2971L38.8561 18.3602L27.7617 29.4547C24.8459 26.2154 23.311 21.9863 23.5178 17.5738ZM31.2968 36.8488L27.1555 38.1943C26.8657 37.7242 26.4824 37.3043 26.0144 36.9642L22.6908 34.5495C22.1835 34.181 21.6175 33.9385 21.0325 33.8164V29.3891C21.6175 29.2669 22.1835 29.0244 22.6908 28.6558L24.212 27.5506C25.9484 30.5408 28.5158 33.0148 31.6162 34.6372C31.5601 34.8736 31.1688 35.6724 31.2968 36.8488ZM25.9108 41.2472L24.6412 45.1543C24.2976 46.2118 23.3197 46.9223 22.2076 46.9223H18.0994C16.9874 46.9223 16.0094 46.2118 15.6657 45.1543L14.3963 41.2472C14.0525 40.1897 14.4262 39.0399 15.3259 38.3863L18.6493 35.9715C19.5442 35.3214 20.7619 35.3208 21.6575 35.9715L24.981 38.3863C25.8808 39.0399 26.2544 40.1896 25.9108 41.2472ZM22.8959 24.7686C23.0483 25.1767 23.2146 25.5779 23.3947 25.9717L21.6575 27.2337C20.7596 27.8862 19.5485 27.8869 18.6495 27.2337L15.7524 25.1289C18.0761 24.4995 20.5062 24.3774 22.8959 24.7686ZM13.7765 25.7992C14.1991 26.2224 14.2624 26.1982 17.6164 28.6558C18.1236 29.0244 18.6898 29.2669 19.2746 29.389V33.8163C18.6898 33.9384 18.1236 34.1809 17.6164 34.5494L14.2929 36.9641C13.8247 37.3042 13.4414 37.7241 13.1516 38.1943L9.01046 36.8488C9.07515 36.2547 9.01726 35.6408 8.82332 35.0443C7.54226 31.1545 7.56687 31.0489 7.29664 30.517C9.03437 28.466 11.2528 26.8349 13.7765 25.7992ZM6.04769 32.1898L7.15157 35.5874C7.4914 36.6333 7.12883 37.7895 6.22194 38.4484L3.32562 40.5527C3.4776 37.4777 4.45832 34.6175 6.04769 32.1898ZM12.3879 50.5869C11.8428 50.3418 11.2412 50.2072 10.614 50.2072C6.45092 50.2239 6.41401 50.1673 5.82504 50.2614C4.40172 47.9664 3.55061 45.3598 3.35093 42.6402C3.88412 42.3691 3.89501 42.2911 7.25527 39.8703C7.76268 39.5016 8.17037 39.0391 8.46731 38.5204L12.555 39.8486C12.4649 40.4852 12.516 41.1477 12.7249 41.7902L13.9943 45.6974C14.1789 46.2654 14.4723 46.7736 14.8465 47.2031L12.3879 50.5869ZM24.1598 57.76C22.8752 58.0745 21.5337 58.2426 20.1535 58.2426C18.7916 58.2426 17.4487 58.0777 16.1473 57.7603C16.0546 57.1707 15.9856 57.1415 14.7191 53.19C14.5253 52.5935 14.2113 52.063 13.8099 51.6202L16.2479 48.2648C16.8133 48.5327 17.4425 48.6802 18.0995 48.6802H22.2078C22.8649 48.6802 23.4941 48.5327 24.0594 48.2648L26.4973 51.6202C26.0957 52.063 25.7818 52.5936 25.5879 53.19C24.3204 57.1449 24.252 57.1731 24.1598 57.76ZM26.1536 57.1374L27.2597 53.7331C27.6015 52.6811 28.5784 51.965 29.6934 51.965H33.263C31.4061 54.2631 28.9589 56.0647 26.1536 57.1374ZM34.4745 50.2603C33.8903 50.168 33.8487 50.2236 29.6934 50.2072C29.0662 50.2072 28.4646 50.3419 27.9194 50.5869L25.4609 47.2031C25.8351 46.7736 26.1285 46.2653 26.313 45.6973L27.5825 41.7902C27.7912 41.1477 27.8423 40.485 27.7523 39.8486L31.8401 38.5204C32.137 39.0391 32.5446 39.5016 33.052 39.8702C36.4367 42.3085 36.4236 42.3692 36.9565 42.6401C36.7521 45.4208 35.8694 48.0154 34.4745 50.2603ZM34.0851 38.4483C33.1933 37.8002 32.8108 36.6483 33.1556 35.5874L33.2226 35.381C34.1836 35.7707 35.1849 36.081 36.2183 36.3044C36.6541 37.6806 36.9097 39.1043 36.9809 40.5523L34.0851 38.4483ZM40.8855 34.9418C36.48 35.1482 32.249 33.618 29.0048 30.6978L40.0992 19.6033L45.162 24.6661C42.4666 27.6354 40.9422 31.3007 40.8855 34.9418ZM42.6497 34.7649C42.7614 31.6747 44.1193 28.4719 46.408 25.912L51.1938 30.6978C48.8501 32.8074 45.9049 34.2609 42.6497 34.7649ZM52.4368 29.4548L47.651 24.669C50.2119 22.3794 53.4145 21.0213 56.5043 20.9091C56.0005 24.1648 54.5469 27.1107 52.4368 29.4548ZM56.6809 19.1445C53.0418 19.2014 49.3754 20.7265 46.4051 23.423L41.3423 18.3602L52.4422 7.26025C55.3137 10.4573 56.8883 14.7095 56.6809 19.1445Z" fill="#49B3F7"/>
</g>
<defs>
<clipPath id="clip0_320_78441">
<rect width="60" height="60" fill="white"/>
</clipPath>
</defs>
</svg>
