<svg width="132" height="199" viewBox="0 0 132 199" fill="none" xmlns="http://www.w3.org/2000/svg">
<g style="mix-blend-mode:multiply" opacity="0.95">
<g style="mix-blend-mode:multiply" opacity="0.95">
<g style="mix-blend-mode:multiply" opacity="0.95">
<path d="M109.534 170.086L45.7571 174.047V189.279L108.308 184.101C108.308 184.101 112.624 179.631 109.534 170.086Z" fill="#F8CC90"/>
</g>
</g>
<path d="M66 199.001C102.451 199.001 132 193.61 132 186.959C132 180.309 102.451 174.918 66 174.918C29.5492 174.918 0 180.309 0 186.959C0 193.61 29.5492 199.001 66 199.001Z" fill="#DEE1F3"/>
</g>
<path d="M110.084 166.724L39.896 171.085V187.846L108.707 182.145C108.707 182.145 113.436 177.233 110.084 166.724Z" fill="#FF6551"/>
<g style="mix-blend-mode:multiply" opacity="0.95">
<path d="M110.084 166.724L39.896 171.085V187.846L108.707 182.145C108.707 182.145 113.436 177.233 110.084 166.724Z" fill="#F8CC90"/>
</g>
<path d="M63.0101 174.335C63.0101 174.335 66.0015 178.83 63.0101 183.048L101.252 179.894C102.26 177.342 102.26 174.502 101.252 171.95L63.0101 174.335Z" fill="#FF6551"/>
<path d="M12.2136 167.731L66.2861 164.481L110.084 166.724L39.9241 171.085L12.2136 167.731Z" fill="#FF6551"/>
<path d="M13.5528 168.842C13.5528 168.842 15.8984 176.89 14.227 182.487L39.2311 186.734C39.2311 186.734 42.3839 186.288 42.9347 181.584C43.4855 176.881 39.2311 171.037 39.2311 171.037L13.5528 168.842Z" fill="#FFEBDD"/>
<g style="mix-blend-mode:multiply" opacity="0.41">
<path d="M39.232 171.037L13.5917 168.88C13.5917 168.88 13.9241 170.087 14.2565 171.988L34.8922 174.287C35.8443 174.385 36.74 174.785 37.4477 175.43C38.1554 176.075 38.6376 176.93 38.8237 177.869C38.8237 177.869 38.8237 177.945 38.8237 177.983C38.9206 178.69 38.8481 179.409 38.6122 180.082C38.3763 180.755 37.9837 181.362 37.4669 181.853C36.9501 182.345 36.3239 182.706 35.64 182.907C34.9562 183.108 34.2344 183.143 33.5342 183.01L14.7123 179.656C14.6379 180.621 14.4661 181.576 14.1995 182.506L39.2035 186.754C39.2035 186.754 42.3563 186.307 42.9071 181.603C43.4579 176.9 39.232 171.037 39.232 171.037Z" fill="#E79E82"/>
</g>
<g style="mix-blend-mode:multiply" opacity="0.41">
<path d="M14.5896 174.125C14.6561 174.639 14.7131 175.171 14.751 175.712L33.8863 177.29L14.5896 174.125Z" fill="#E79E82"/>
</g>
<g style="mix-blend-mode:multiply" opacity="0.41">
<path d="M28.9085 179.589L14.8159 177.385C14.8159 177.765 14.8159 178.154 14.8159 178.544L28.9085 179.589Z" fill="#E79E82"/>
</g>
<path d="M12.2143 169.631L37.997 172.871C39.7875 174.456 40.9051 176.665 41.1213 179.047C41.0975 180.219 40.841 181.375 40.3665 182.447C39.8921 183.518 39.2093 184.485 38.3579 185.29L12.6606 181.147L12.7746 183.608L39.2315 187.856C39.2315 187.856 44.0557 186.183 43.9797 179.589C43.9038 172.995 39.8963 171.085 39.8963 171.085L12.1858 167.73L12.2143 169.631Z" fill="#FF6551"/>
<path d="M105.954 151.263C105.954 151.263 103.162 159.9 105.954 166.609L97.1221 169.63C97.1221 169.63 89.9713 165.269 95.6691 154.532L105.954 151.263Z" fill="#FFEBDD"/>
<g style="mix-blend-mode:multiply" opacity="0.41">
<g style="mix-blend-mode:multiply" opacity="0.41">
<path d="M97.1216 169.63L105.953 166.609C105.586 165.719 105.306 164.797 105.118 163.853L97.8243 166.286C97.8243 166.286 96.9317 165.839 96.2574 162.694C96.1053 161.672 96.166 160.629 96.4356 159.632C96.7052 158.634 97.178 157.704 97.8243 156.898L105.232 154.199C105.409 153.217 105.644 152.246 105.934 151.292L95.6496 154.56C89.9708 165.269 97.1216 169.63 97.1216 169.63Z" fill="#E79E82"/>
</g>
<g style="mix-blend-mode:multiply" opacity="0.41">
<path d="M104.804 157.468C104.804 156.965 104.899 156.518 104.956 156.024L98.8498 158.989L104.804 157.468Z" fill="#E79E82"/>
</g>
<g style="mix-blend-mode:multiply" opacity="0.41">
<path d="M99.7234 162.665L104.832 161.82C104.775 161.212 104.737 160.613 104.728 160.024L99.7234 162.665Z" fill="#E79E82"/>
</g>
</g>
<path d="M18.1407 151.263C18.1407 151.263 13.611 161.915 20.3154 169.317L94.3304 171.778C94.3304 171.778 90.8357 166.077 93.2003 153.943L18.1407 151.263Z" fill="#49B3F7"/>
<path d="M24.1622 154.883C24.1622 154.883 21.2468 159.862 24.9978 166.742L81.1406 168.348C81.1406 168.348 77.7883 165.031 79.6306 156.632L24.1622 154.883Z" fill="#89CEFA"/>
<path d="M107.797 148.537L93.2011 153.934C93.2011 153.934 89.7444 163.835 94.3312 171.769L107.123 167.636V164.614L97.1231 168.301C97.1231 168.301 93.1061 165.45 96.1165 155.787L107.683 152.214L107.797 148.537Z" fill="#0071BC"/>
<path d="M18.1396 151.263L46.1825 145.856L107.795 148.536L93.1992 153.914L18.1396 151.263Z" fill="#0071BC"/>
<path d="M49.0319 178.449C49.0319 178.449 49.0319 181.585 47.4175 183.267C45.8031 184.948 40.77 187.457 41.1498 190.479C41.5297 193.5 51.8808 191.828 57.7401 187.295C63.5993 182.763 59.3545 180.093 57.7401 177.898L49.0319 178.449Z" fill="#808080"/>
<path d="M42.3274 138.408C42.3274 138.408 34.7873 153.402 37.7976 162.638C40.808 171.874 48.8609 180.749 48.8609 180.749C48.8609 180.749 55.7268 182.088 57.7401 177.898C57.7401 177.898 51.7098 170.021 56.4011 157.279C56.4011 157.279 60.2566 145.154 54.7297 139.814C49.2028 134.474 45.0054 135.633 42.3274 138.408Z" fill="#2435A1"/>
<path d="M77.5981 178.449C77.5981 178.449 77.5981 181.585 79.2125 183.267C80.8269 184.948 85.8125 187.457 85.4802 190.479C85.1478 193.5 74.7492 191.828 68.8804 187.295C63.0117 182.763 67.2755 180.093 68.8804 177.898L77.5981 178.449Z" fill="#808080"/>
<path d="M84.3026 138.408C84.3026 138.408 91.8427 153.402 88.8229 162.638C85.803 171.874 77.7691 180.749 77.7691 180.749C77.7691 180.749 70.8937 182.088 68.8804 177.898C68.8804 177.898 74.9201 170.021 70.2289 157.279C70.2289 157.279 66.3734 145.154 71.9003 139.814C77.4272 134.474 81.6246 135.633 84.3026 138.408Z" fill="#2435A1"/>
<path d="M94.0272 111.811C94.0272 111.897 94.0272 111.992 94.0272 112.087C93.8904 112.724 93.6024 113.319 93.1876 113.822C92.7727 114.325 92.2432 114.72 91.6436 114.975C90.4496 115.484 89.2002 115.85 87.921 116.068C86.0217 116.505 84.1984 117.123 82.3181 117.55C79.9995 118.024 77.6518 118.341 75.2908 118.501C71.4922 118.843 67.6177 119.175 63.7716 119.175C56.9989 119.017 50.253 118.267 43.6108 116.933C39.9599 116.433 36.3864 115.476 32.9748 114.082C31.1895 113.265 29.3377 111.973 29.0623 110.025C28.7869 108.077 30.3823 105.92 31.3699 104.324C32.497 102.547 33.8154 100.9 35.3014 99.4112C38.2329 96.3213 41.7959 93.9002 45.7475 92.3133C47.2954 91.7052 48.8528 91.1065 50.4387 90.6219L51.1319 90.4129C51.6352 90.2704 52.1386 90.1468 52.6514 90.0328C59.2379 88.6733 66.0691 89.1198 72.4229 91.3251C73.6194 91.7147 74.816 92.1613 75.9745 92.6459C76.4778 92.8549 76.9811 93.0734 77.475 93.3015C81.1322 94.8569 84.4855 97.0477 87.3797 99.7723C90.0958 102.47 92.167 105.748 93.4384 109.36C93.792 110.131 93.992 110.964 94.0272 111.811Z" fill="#FF6551"/>
<g style="mix-blend-mode:multiply" opacity="0.95">
<path d="M93.4477 109.322C91.805 104.6 88.7849 100.479 84.7775 97.4919C80.1623 101.692 73.6192 103.412 68.0733 104.143C59.5266 105.844 47.9694 101.426 44.3323 92.9404C40.9529 94.523 37.8969 96.7205 35.3202 99.4208C33.8231 100.896 32.492 102.53 31.3507 104.295C30.4011 105.93 28.7677 108.02 29.0431 109.996C29.3185 111.973 31.1703 113.237 32.9556 114.054C36.3673 115.447 39.9407 116.405 43.5916 116.904C50.2338 118.238 56.9797 118.988 63.7525 119.147C67.551 119.147 71.4351 118.805 75.2716 118.472C77.6326 118.313 79.9804 117.996 82.299 117.522C84.1982 117.094 86.0215 116.477 87.9018 116.03C89.1869 115.831 90.4432 115.477 91.6434 114.975C92.2385 114.724 92.7652 114.334 93.1797 113.839C93.5942 113.343 93.8847 112.755 94.027 112.125C94.027 112.03 94.027 111.935 94.027 111.849C94.0048 110.977 93.8078 110.117 93.4477 109.322Z" fill="#F8CC90"/>
</g>
<g style="mix-blend-mode:multiply">
<g style="mix-blend-mode:multiply">
<path d="M72.4506 91.2968C72.2037 91.7148 68.4906 95.0975 61.8146 94.4134C55.8224 93.7768 53.3153 91.2683 52.6791 90.0045C59.2656 88.6449 66.0968 89.0914 72.4506 91.2968Z" fill="#F7A845"/>
</g>
</g>
<path d="M69.4022 90.6888C69.4022 90.6888 67.6928 93.2829 62.0804 92.5892C56.4681 91.8956 55.2145 89.7386 55.2145 89.7386V87.6292V84.5696L68.5095 83.4864L69.763 83.3818V84.161L69.5731 88.1993L69.4022 90.6888Z" fill="#EA9573"/>
<g style="mix-blend-mode:multiply" opacity="0.31">
<path d="M69.5161 88.2088C67.7308 89.406 65.4517 90.5748 63.4289 90.4988C59.4119 90.3467 55.319 87.6957 55.2145 87.6482V84.5695L68.5095 83.4863L69.725 84.161L69.5161 88.2088Z" fill="#DD7258"/>
</g>
<path d="M95.9745 50.3625C95.9745 50.3625 101.264 47.8825 104.217 51.6263C107.171 55.37 102.489 64.8435 98.9089 65.7747C95.3288 66.7059 93.9328 65.7747 93.9328 65.7747L95.9745 50.3625Z" fill="#FFBF94"/>
<path d="M29.7259 50.2292C29.7259 50.2292 24.4364 47.7397 21.4735 51.4645C18.5106 55.1892 23.1733 64.7007 26.744 65.6319C30.3146 66.5631 31.7201 65.6319 31.7201 65.6319L29.7259 50.2292Z" fill="#FFBF94"/>
<path d="M98.4809 36.1093C98.4809 36.1093 97.5312 50.0296 95.9548 61.2229C95.7269 62.9048 95.48 64.5201 95.2331 65.9739C94.4734 70.4683 93.6092 73.889 92.6976 74.7442C89.4023 77.9179 70.7324 87.9519 63.4202 87.4673C56.1079 86.9827 36.8302 77.7088 33.7344 74.3546C32.7848 73.2904 31.6642 69.5181 30.6766 64.8527C28.5589 55.0087 26.7736 41.2688 26.7736 41.2688C27.5523 18.6827 40.192 11.0526 64.5882 10.283C88.9845 9.51333 98.4809 36.1093 98.4809 36.1093Z" fill="#FFBF94"/>
<g opacity="0.27">
<path opacity="0.27" d="M80.4278 18.1415C80.4278 18.1415 77.5124 2.71979 61.0551 2.93834C54.1381 3.06824 47.3361 4.73291 41.14 7.81223C34.9439 10.8915 29.5082 15.3087 25.2252 20.745C21.0902 26.1087 19.2286 32.8842 20.0423 39.6092C20.8561 46.3342 24.2797 52.4694 29.5745 56.6909C29.5745 56.6909 33.3731 49.6784 37.1052 44.1863C37.1052 44.1863 58.1397 53.3842 77.9397 36.1762C77.9302 36.1762 83.3432 27.7384 80.4278 18.1415Z" fill="#DA8966"/>
<path opacity="0.27" d="M76.9335 27.3585C76.9335 27.3585 76.3068 37.1835 82.7643 43.0842C89.2219 48.9849 94.217 49.6121 94.217 49.6121C94.217 49.6121 97.7592 56.2634 95.2616 63.3709C95.2616 63.3709 104.283 54.8951 102.859 37.307C101.434 19.7189 92.8875 13.9703 76.8671 14.1793L76.9335 27.3585Z" fill="#DA8966"/>
</g>
<path d="M76.2787 44.7087C76.5446 45.1268 77.0194 45.0793 77.4752 45.1268C77.9311 45.1743 78.5198 45.1838 79.0516 45.2028C80.0805 45.1989 81.1012 45.3857 82.062 45.7539C82.9388 46.1561 83.7671 46.6565 84.5311 47.2457C84.898 47.5342 85.2817 47.8008 85.6801 48.0439C85.9039 48.1844 86.1428 48.2991 86.3923 48.3859C86.6393 48.4524 86.8767 48.3859 87.1046 48.5C87.3325 48.614 87.5604 48.2624 87.4559 48.0439C87.3515 47.8253 87.38 47.5213 87.2565 47.2742C87.1133 47.0039 86.9379 46.7518 86.7342 46.5236C86.3587 46.0908 85.9386 45.6991 85.4807 45.3548C84.5418 44.6306 83.4848 44.0745 82.3564 43.711C81.1763 43.3667 79.9368 43.276 78.7193 43.4449C78.3394 43.4449 75.7374 43.863 76.2787 44.7087Z" fill="#5F130F"/>
<g style="mix-blend-mode:multiply" opacity="0.44">
<path d="M29.3939 62.0496C27.3843 61.0742 25.8148 59.3783 24.9971 57.2986C24.6837 56.3484 24.7597 54.9041 25.9467 54.7426C26.9534 54.6096 27.3617 55.9208 27.846 56.643C28.0834 56.9946 28.7197 56.7855 28.5677 56.3389C28.1594 55.1417 27.7606 53.6309 26.2696 53.4883C25.5513 53.4547 24.8488 53.7064 24.3151 54.1888C23.7815 54.6711 23.46 55.3449 23.4207 56.0634C23.2213 57.7927 24.2659 59.4081 25.244 60.7383C26.2221 62.0686 27.5516 63.1043 29.299 62.7147C29.3618 62.689 29.4167 62.6472 29.4584 62.5937C29.5001 62.5401 29.5271 62.4766 29.5367 62.4094C29.5463 62.3421 29.5382 62.2736 29.5131 62.2105C29.4881 62.1474 29.447 62.0919 29.3939 62.0496Z" fill="#DA8966"/>
</g>
<g style="mix-blend-mode:multiply" opacity="0.44">
<path d="M102.763 55.9021C102.678 54.6004 101.595 53.4316 100.218 54.0017C99.2684 54.3723 97.7964 56.1682 98.8125 57.0994C98.8389 57.123 98.8701 57.1407 98.9039 57.1512C98.9377 57.1617 98.9734 57.1648 99.0086 57.1603C99.0437 57.1558 99.0774 57.1438 99.1075 57.1251C99.1376 57.1064 99.1633 57.0814 99.1829 57.0519C99.6957 56.3772 99.7527 55.2655 100.74 55.0089C102.089 54.6669 101.69 56.9093 101.5 57.603C101.349 58.4102 101.025 59.1751 100.55 59.8454C99.9703 60.4585 99.2548 60.9271 98.4612 61.2137C98.4238 61.2358 98.392 61.2661 98.3681 61.3024C98.3442 61.3387 98.329 61.38 98.3235 61.4231C98.318 61.4661 98.3224 61.5099 98.3364 61.551C98.3504 61.5922 98.3736 61.6295 98.4042 61.6603C99.4773 62.8385 101.044 61.2612 101.642 60.311C102.44 58.9832 102.83 57.4499 102.763 55.9021Z" fill="#DA8966"/>
</g>
<path d="M46.1842 45.3741C45.4625 44.6045 44.0286 44.8895 43.0979 45.0226C42.0382 45.1904 41.0083 45.5105 40.0401 45.9728C39.0991 46.4068 38.2156 46.9557 37.4096 47.6071C36.7163 48.1582 35.5103 49.1749 35.8427 50.1726C35.8845 50.31 35.9684 50.4307 36.0826 50.5177C36.1968 50.6047 36.3355 50.6535 36.4789 50.6572C37.3241 50.7522 38.1788 49.707 38.796 49.2509C39.4972 48.7191 40.2591 48.2725 41.0657 47.9207C41.8478 47.598 42.6586 47.3498 43.4873 47.1795C44.3514 46.9895 45.51 47.1795 46.1842 46.5049C46.3281 46.3575 46.4086 46.1597 46.4086 45.9538C46.4086 45.7478 46.3281 45.55 46.1842 45.4026V45.3741Z" fill="#5F130F"/>
<path d="M72.3852 72.2644C71.8968 74.1641 71.0062 75.9366 69.7737 77.462C68.9123 78.5048 67.8295 79.3426 66.6042 79.9146C65.3788 80.4865 64.0415 80.7783 62.6894 80.7687C61.1764 80.8425 59.67 80.5245 58.3159 79.8453C56.9617 79.1662 55.8056 78.1489 54.9593 76.8919C53.9462 75.4266 53.2033 73.7919 52.7656 72.0649C52.6999 71.8272 52.7235 71.5736 52.8321 71.3522C52.9373 71.1084 53.1313 70.9138 53.3747 70.8079C53.6181 70.702 53.8927 70.6928 54.1426 70.7821L54.4845 70.8961C59.8406 72.6254 65.6046 72.6254 70.9608 70.8961C71.0776 70.8595 71.1992 70.8403 71.3216 70.8391C71.561 70.8388 71.7944 70.9139 71.9887 71.0537C72.183 71.1936 72.3284 71.3911 72.4042 71.6183C72.4637 71.8306 72.4571 72.056 72.3852 72.2644Z" fill="#831532"/>
<path d="M72.3655 71.5902C69.5157 73.6582 66.1037 74.8084 62.5842 74.8873C59.0401 74.7544 55.6265 73.5151 52.8219 71.3431C52.9289 71.0988 53.1252 70.9046 53.3706 70.8004C53.616 70.6961 53.8919 70.6897 54.1419 70.7825L54.4838 70.8965C59.8399 72.6258 65.6039 72.6258 70.96 70.8965C71.0769 70.8598 71.1985 70.8406 71.3209 70.8395C71.5503 70.8448 71.7728 70.9194 71.9591 71.0533C72.1455 71.1872 72.2872 71.3743 72.3655 71.5902Z" fill="white"/>
<path d="M69.7729 77.462C68.9115 78.5048 67.8288 79.3426 66.6034 79.9146C65.378 80.4865 64.0407 80.7783 62.6886 80.7687C61.1757 80.8425 59.6693 80.5245 58.3151 79.8453C56.9609 79.1662 55.8048 78.1489 54.9586 76.8919C59.8539 75.7031 64.9833 75.9005 69.7729 77.462Z" fill="#FF6551"/>
<path d="M48.1345 69.0454C48.5156 67.4585 46.4226 65.5947 43.4597 64.8824C40.4969 64.1701 37.7861 64.8791 37.405 66.466C37.024 68.0529 39.117 69.9168 42.0798 70.6291C45.0427 71.3413 47.7535 70.6323 48.1345 69.0454Z" fill="#F2786B"/>
<path d="M83.6127 70.7345C86.6301 70.3091 88.8917 68.6542 88.6641 67.0381C88.4366 65.422 85.806 64.4567 82.7886 64.8821C79.7713 65.3075 77.5097 66.9625 77.7372 68.5785C77.9648 70.1946 80.5954 71.1599 83.6127 70.7345Z" fill="#F2786B"/>
<g style="mix-blend-mode:multiply" opacity="0.21">
<g style="mix-blend-mode:multiply" opacity="0.21">
<path d="M62.1473 63.9502C61.1516 63.979 60.1763 64.2392 59.2984 64.7103C59.2309 64.7437 59.1698 64.7887 59.118 64.8434C58.9471 65.0714 59.2224 65.366 59.4788 65.499C61.1456 66.2298 63.0193 66.3377 64.7588 65.8031C65.1885 65.7386 65.5924 65.5579 65.9269 65.2805C66.1168 65.0904 66.2308 64.7484 66.0409 64.5678C65.9487 64.4988 65.8411 64.4531 65.7275 64.4348C64.0928 64.0927 62.405 64.0927 60.7704 64.4348L62.1473 63.9502Z" fill="#DA8966"/>
</g>
</g>
<path d="M59.1951 65.0813C59.6415 64.9198 60.0118 64.6157 60.4772 64.4732C61.0213 64.3248 61.585 64.2607 62.1485 64.2832C62.6818 64.2687 63.2153 64.2973 63.7439 64.3687C64.2802 64.4642 64.7778 64.7115 65.1779 65.0813C65.6242 65.4614 66.3649 64.9863 66.0326 64.4257C65.3013 63.1904 63.4875 63.1809 62.234 63.1999C61.1704 63.1999 59.0812 63.333 58.7868 64.6727C58.7868 64.9008 58.9387 65.1763 59.1951 65.0813Z" fill="#D88261"/>
<path d="M74.1516 60.8145C73.5603 60.1861 73.1169 59.4333 72.854 58.6112C72.5911 57.7892 72.5153 56.9187 72.6322 56.0635C72.8788 54.3451 73.7806 52.7889 75.1487 51.7211C76.4853 50.6462 78.191 50.141 79.8969 50.3149C80.7488 50.4161 81.5643 50.7188 82.276 51.198C82.9878 51.6772 83.5753 52.319 83.9899 53.0704C84.221 53.5488 84.4055 54.0484 84.5407 54.5622C84.8365 55.524 84.9271 56.5373 84.8066 57.5363C84.4616 59.0765 83.5539 60.4321 82.2615 61.3371C81.3195 62.1236 80.1447 62.5778 78.9188 62.6294C77.6199 62.5056 76.3727 62.0581 75.2912 61.3276C74.501 60.9966 73.8684 60.3739 73.5249 59.5888L74.1516 60.8145Z" fill="white"/>
<path d="M52.4225 60.653C52.7904 59.8731 52.9812 59.0213 52.9812 58.1588C52.9812 57.2963 52.7904 56.4445 52.4225 55.6645C51.6684 54.0982 50.3429 52.8808 48.7189 52.2628C47.1043 51.6382 45.3082 51.6792 43.7238 52.3768C42.945 52.7339 42.2619 53.2706 41.7304 53.9428C41.1989 54.615 40.8341 55.4037 40.666 56.2441C40.5836 56.772 40.5582 57.3072 40.59 57.8405C40.5878 58.8669 40.8081 59.8816 41.2357 60.8146C42.0282 62.1816 43.3066 63.1995 44.8159 63.6652C45.9529 64.1293 47.211 64.2061 48.396 63.8837C49.5966 63.376 50.6487 62.5717 51.4539 61.5462C52.1119 60.9942 52.5277 60.2063 52.6124 59.3513L52.4225 60.653Z" fill="white"/>
<path d="M84.1324 58.0875C84.0544 57.0893 83.693 56.1341 83.0907 55.3345C82.4884 54.5349 81.6703 53.9241 80.7327 53.5741C78.1402 52.7284 74.788 54.0207 73.9428 56.5672C73.7848 56.836 73.6604 57.1232 73.5724 57.4224C72.2145 61.8788 77.7888 63.7507 81.1696 62.4489C82.0778 62.1551 82.8622 61.5667 83.3988 60.7768C83.9354 59.9869 84.1935 59.0406 84.1324 58.0875Z" fill="#2D2D2D"/>
<path d="M51.1132 56.3577L50.8853 56.0631C50.2398 55.4466 49.4452 55.0085 48.5795 54.792C47.7138 54.5754 46.8066 54.5878 45.9471 54.8279C45.0367 55.0207 44.1985 55.4647 43.5272 56.1095C42.8559 56.7544 42.3783 57.5743 42.1486 58.4766C41.7212 60.377 42.0821 62.572 43.9054 63.6457C46.9443 65.451 52.775 63.4936 52.6991 59.4838C52.6865 58.877 52.5374 58.2808 52.2628 57.7396C51.9883 57.1983 51.5953 56.726 51.1132 56.3577Z" fill="#2D2D2D"/>
<path d="M75.918 59.3323C75.8366 59.5482 75.8005 59.7786 75.8119 60.0091C75.8234 60.2396 75.8821 60.4653 75.9845 60.6721C76.0444 61.0184 76.2294 61.3307 76.5042 61.5496C76.779 61.7686 77.1246 61.8789 77.4754 61.8598C77.8971 61.8412 78.3006 61.6826 78.6222 61.4091C78.9438 61.1355 79.1651 60.7625 79.2512 60.349C79.6406 58.3821 76.6587 57.4034 75.918 59.3323Z" fill="white"/>
<path d="M50.343 59.8072C50.4886 59.9878 50.5943 60.1971 50.6532 60.4215C50.7122 60.6458 50.723 60.8801 50.6849 61.109C50.735 61.4646 50.6509 61.8261 50.4489 62.123C50.247 62.4199 49.9418 62.6309 49.5928 62.7148C49.1791 62.8223 48.7412 62.7869 48.35 62.6145C47.9588 62.442 47.6372 62.1426 47.4371 61.7646C46.4685 60.0352 49.0135 58.2014 50.343 59.8072Z" fill="white"/>
<path d="M27.7221 47.9398L23.5627 38.9604C23.5627 38.9604 -0.60564 43.3979 0.0116257 77.9184C1.64694 78.7316 3.34229 79.4177 5.08271 79.9709C4.91032 76.9657 5.51886 73.967 6.84904 71.2671C7.14007 74.5015 7.67337 77.7095 8.44443 80.864C10.5042 81.3457 12.6071 81.6194 14.7216 81.6812C14.193 78.2218 14.2798 74.6962 14.978 71.2671C15.7496 74.7496 16.778 78.1702 18.0548 81.5007C19.9427 81.2991 21.7897 80.8155 23.5342 80.0659C23.5342 80.0659 18.3492 59.6082 27.7221 47.9398Z" fill="#672410"/>
<path d="M101.88 34.8081L98.3377 46.3815C101.2 50.846 102.664 56.0648 102.54 61.3676C102.417 66.6705 100.712 71.8153 97.6445 76.1416C97.2618 76.8093 96.9162 77.4977 96.6094 78.2035C96.4289 78.5456 96.2485 78.8781 96.0491 79.2202C97.959 80.5381 100.043 81.5839 102.241 82.3274C103.713 79.5284 104.757 76.5239 105.337 73.4145C105.337 73.4145 106.001 78.9922 104.805 83.078C107.229 83.6732 109.735 83.8658 112.221 83.6481C113.897 80.7601 114.918 77.539 115.213 74.2127C115.585 77.149 115.696 80.1125 115.545 83.0685C117.239 82.6316 118.874 81.9936 120.417 81.1681C120.417 81.1681 137.083 42.1056 101.88 34.8081Z" fill="#672410"/>
<path d="M5.53827 65.081H5.49079C5.3726 65.0764 5.2566 65.0477 5.14981 64.9968C5.04302 64.946 4.94766 64.8739 4.86953 64.7851C4.79139 64.6962 4.7321 64.5924 4.69524 64.48C4.65838 64.3675 4.64473 64.2487 4.6551 64.1308C5.11093 55.5221 11.407 47.5119 17.5037 43.4546C17.6977 43.3238 17.9357 43.2753 18.1654 43.3199C18.395 43.3644 18.5977 43.4983 18.7288 43.6922C18.86 43.8878 18.9087 44.1273 18.8642 44.3587C18.8198 44.5901 18.6858 44.7945 18.4914 44.9274C12.974 48.6427 6.83928 56.2727 6.42143 64.2449C6.40927 64.4709 6.31088 64.6837 6.14656 64.8392C5.98223 64.9948 5.7645 65.0814 5.53827 65.081Z" fill="#772F1E"/>
<path d="M11.2739 71.0199C11.0413 71.0199 10.8181 70.9281 10.6528 70.7645C10.4874 70.6008 10.3933 70.3785 10.3908 70.1457C10.2388 59.8646 13.0023 52.3581 19.3364 45.9633C19.5013 45.7957 19.7261 45.7005 19.9612 45.6988C20.1962 45.697 20.4224 45.7887 20.5899 45.9538C20.7574 46.1188 20.8525 46.3437 20.8543 46.5789C20.856 46.8142 20.7644 47.0404 20.5994 47.208C14.6262 53.2418 12.0526 60.3112 12.1571 70.1267C12.1583 70.2428 12.1367 70.3579 12.0935 70.4656C12.0503 70.5733 11.9863 70.6714 11.9051 70.7544C11.824 70.8373 11.7273 70.9035 11.6207 70.949C11.514 70.9946 11.3994 71.0187 11.2834 71.0199H11.2739Z" fill="#772F1E"/>
<path d="M18.7673 72.274C18.5552 72.2719 18.3507 72.1942 18.1906 72.0549C18.0305 71.9156 17.9253 71.7238 17.8937 71.5139C15.8804 57.413 21.9107 50.3245 22.1671 50.03C22.2407 49.9349 22.3331 49.8559 22.4383 49.7979C22.5436 49.7398 22.6596 49.7038 22.7792 49.6921C22.8989 49.6805 23.0196 49.6934 23.1341 49.7301C23.2486 49.7668 23.3544 49.8264 23.445 49.9055C23.5357 49.9845 23.6092 50.0812 23.6612 50.1896C23.7132 50.2981 23.7425 50.416 23.7473 50.5362C23.7521 50.6564 23.7323 50.7763 23.6892 50.8886C23.6461 51.0009 23.5806 51.1032 23.4966 51.1892C23.4301 51.2747 17.7987 58.0401 19.6505 71.2573C19.6832 71.4902 19.6227 71.7266 19.4823 71.9152C19.3418 72.1037 19.1327 72.2293 18.9003 72.2645L18.7673 72.274Z" fill="#772F1E"/>
<path d="M107.835 70.107H107.692C107.577 70.0897 107.466 70.0495 107.367 69.9887C107.267 69.9279 107.181 69.8478 107.112 69.753C107.044 69.6583 106.996 69.5508 106.97 69.437C106.944 69.3231 106.941 69.2053 106.961 69.0903C107.578 65.2895 108.481 55.8731 103.438 51.2836C103.351 51.2053 103.281 51.1106 103.232 51.005C103.182 50.8994 103.153 50.785 103.148 50.6684C103.143 50.5518 103.161 50.4353 103.201 50.3256C103.241 50.2159 103.302 50.1152 103.381 50.0294C103.458 49.9431 103.552 49.8731 103.657 49.8234C103.762 49.7738 103.875 49.7455 103.991 49.7402C104.107 49.7349 104.223 49.7527 104.331 49.7925C104.44 49.8324 104.54 49.8935 104.625 49.9724C110.104 54.9609 109.535 64.2728 108.709 69.3753C108.671 69.58 108.563 69.7652 108.404 69.8988C108.244 70.0323 108.043 70.106 107.835 70.107Z" fill="#772F1E"/>
<path d="M113.532 73.4332H113.38C113.265 73.4137 113.155 73.3716 113.056 73.3094C112.958 73.2471 112.872 73.1659 112.805 73.0705C112.738 72.9751 112.691 72.8674 112.665 72.7535C112.64 72.6396 112.638 72.5218 112.658 72.407C114.69 60.9381 112.582 52.3009 106.01 45.2314C105.928 45.1493 105.862 45.0516 105.817 44.944C105.773 44.8363 105.75 44.7209 105.75 44.6043C105.75 44.4877 105.773 44.3723 105.817 44.2646C105.862 44.157 105.928 44.0593 106.01 43.9772C106.189 43.8313 106.415 43.7556 106.646 43.7644C106.877 43.7731 107.097 43.8656 107.264 44.0247C114.234 51.5407 116.485 60.6531 114.358 72.7206C114.318 72.914 114.216 73.0889 114.066 73.2178C113.917 73.3468 113.729 73.4225 113.532 73.4332Z" fill="#772F1E"/>
<path d="M119.942 69.2431H119.837C119.609 69.2191 119.399 69.1059 119.253 68.928C119.107 68.7501 119.037 68.5219 119.058 68.2929C120.008 59.4751 117.539 44.3385 106.656 41.2694C106.431 41.2051 106.24 41.0539 106.126 40.8489C106.012 40.644 105.984 40.4022 106.048 40.1766C106.113 39.9511 106.264 39.7603 106.469 39.6463C106.673 39.5322 106.915 39.5043 107.14 39.5685C119.068 42.9322 121.86 59.095 120.815 68.4924C120.785 68.7023 120.68 68.8941 120.52 69.0322C120.359 69.1703 120.153 69.2452 119.942 69.2431Z" fill="#772F1E"/>
<path d="M25.2909 56.6905C24.9821 56.6918 24.6773 56.6206 24.401 56.4826C24.1247 56.3447 23.8845 56.1438 23.6999 55.8962C23.5152 55.6486 23.3911 55.3611 23.3376 55.0568C23.284 54.7525 23.3025 54.4399 23.3916 54.144C22.9744 54.427 22.4666 54.5439 21.9677 54.4718C21.4689 54.3998 21.0148 54.1439 20.6946 53.7544C20.394 53.3516 20.1883 52.8859 20.093 52.3923C19.9976 51.8986 20.015 51.3898 20.1438 50.9039C20.42 49.9331 20.8427 49.0103 21.3974 48.1673C19.8305 48.3193 17.9787 48.3573 17.0005 47.1221C16.0224 45.8868 16.6966 43.7109 18.0546 42.5992C17.0828 42.35 16.2069 41.8176 15.5381 41.0693C14.351 39.5395 15.3672 36.746 16.9341 35.8623C19.5171 34.4275 23.4486 36.2899 24.9775 38.5228C25.5499 39.4307 26.0122 40.4036 26.3545 41.4209C27.4371 44.2715 29.1179 47.9868 28.5861 51.1319C28.2633 52.8328 27.4276 56.548 25.2909 56.6905Z" fill="#FF6551"/>
<path d="M110.084 36.6416C110.202 37.1127 110.226 37.6024 110.155 38.0828C110.084 38.5632 109.919 39.0248 109.669 39.4413C109.42 39.8578 109.091 40.221 108.701 40.5102C108.311 40.7994 107.868 41.0088 107.397 41.1266C108.023 42.1338 109.296 42.6944 109.714 43.7966C109.883 44.4001 109.853 45.0421 109.629 45.6274C109.405 46.2127 108.999 46.7102 108.47 47.0463C107.402 47.7009 106.202 48.1099 104.956 48.2435C105.407 49.7458 105.603 51.3133 105.535 52.8805C105.5 53.6658 105.29 54.4333 104.92 55.127C104.55 55.8207 104.031 56.4231 103.399 56.8903C102.752 57.3363 101.968 57.5373 101.186 57.4572C100.405 57.3771 99.6777 57.0212 99.1348 56.4532C98.5723 55.646 98.2437 54.699 98.1852 53.7166C97.6815 51.0876 97.5504 48.4006 97.7958 45.735C97.9937 44.4679 98.2825 43.2168 98.66 41.9912C99.4387 39.1407 100.493 36.7652 103.161 35.3874C105.488 34.2091 109.059 33.259 110.084 36.6416Z" fill="#FF6551"/>
<path d="M80.4265 15.2052C80.4265 15.2052 77.5111 -0.206935 61.0539 0.00210745C54.135 0.132964 47.3316 1.79999 41.1352 4.88275C34.9388 7.9655 29.5042 12.387 25.224 17.8278C18.1491 26.6836 16.8956 46.8942 29.8107 57.5269C29.8107 57.5269 32.5172 45.3739 36.2683 39.8818C36.2683 39.8818 58.11 50.4575 77.929 33.2304C77.929 33.2589 83.3419 24.8117 80.4265 15.2052Z" fill="#672410"/>
<path d="M76.9324 24.4409C76.9324 24.4409 76.3057 34.2564 82.7632 40.1571C89.2208 46.0578 94.2159 46.6849 94.2159 46.6849C94.2159 46.6849 97.7581 56.2914 95.2605 63.3703C98.866 59.8312 101.635 55.5303 103.365 50.7823C105.095 46.0343 105.743 40.9593 105.26 35.9287C103.798 18.3406 92.9149 11.0526 76.9135 11.2236L76.9324 24.4409Z" fill="#672410"/>
<path d="M29.3751 56.5671C29.1872 56.5671 29.0043 56.5072 28.8528 56.3961C22.7941 52.0062 21.5026 42.4282 22.908 34.8931C22.9583 34.6671 23.0943 34.4694 23.2874 34.3418C23.4805 34.2141 23.7156 34.1665 23.9432 34.209C24.0596 34.2241 24.1719 34.2623 24.2734 34.3214C24.3749 34.3805 24.4636 34.4592 24.5344 34.553C24.6051 34.6468 24.6565 34.7537 24.6854 34.8676C24.7143 34.9815 24.7203 35.1 24.7029 35.2162C23.4398 41.9816 24.5319 51.0465 29.9354 54.9613C30.1264 55.1002 30.2546 55.3091 30.292 55.5424C30.3294 55.7757 30.2729 56.0143 30.1348 56.206C30.0482 56.3247 29.9333 56.4198 29.8007 56.4829C29.668 56.5459 29.5217 56.5749 29.3751 56.5671Z" fill="#772F1E"/>
<path d="M29.013 52.614C28.8093 52.6117 28.6126 52.5397 28.4554 52.4101C28.2982 52.2805 28.19 52.101 28.1488 51.9013C25.9932 41.5347 26.6199 26.2461 35.4896 17.3618C37.7972 15.0433 40.6651 12.1642 44.4067 11.271C44.5196 11.2442 44.6366 11.2399 44.7511 11.2583C44.8657 11.2767 44.9754 11.3175 45.0742 11.3784C45.173 11.4393 45.2588 11.519 45.3267 11.6131C45.3947 11.7072 45.4435 11.8137 45.4703 11.9266C45.4971 12.0396 45.5014 12.1567 45.483 12.2713C45.4646 12.3859 45.4238 12.4957 45.3629 12.5945C45.3021 12.6934 45.2224 12.7792 45.1284 12.8472C45.0344 12.9152 44.9279 12.964 44.815 12.9909C41.5673 13.77 38.8893 16.4496 36.7431 18.6065C28.3673 27.0157 27.8165 41.6012 29.8867 51.5403C29.9346 51.7707 29.8897 52.0109 29.7617 52.2084C29.6336 52.4059 29.4328 52.5448 29.203 52.595L29.013 52.614Z" fill="#772F1E"/>
<path d="M32.6891 45.7447H32.4897C32.2648 45.6782 32.0724 45.5307 31.9497 45.3307C31.8269 45.1307 31.7825 44.8923 31.825 44.6615C33.4583 37.8296 37.3898 31.9384 40.5616 29.1353C44.6677 25.3891 49.8203 22.9886 55.3286 22.2559C55.5569 22.2371 55.7837 22.3079 55.9609 22.4533C56.1381 22.5987 56.2519 22.8073 56.2782 23.0351C56.2994 23.2641 56.2296 23.4923 56.0838 23.6702C55.9381 23.848 55.7281 23.9612 55.4995 23.9853C50.3652 24.6813 45.5634 26.9212 41.7297 30.4086C38.7668 33.0311 35.0822 38.5707 33.5533 45.0321C33.5121 45.2317 33.404 45.4112 33.2468 45.5408C33.0896 45.6705 32.8928 45.7424 32.6891 45.7447Z" fill="#772F1E"/>
<path d="M39.782 39.4065C39.6407 39.4078 39.5013 39.3747 39.3756 39.3101C39.2499 39.2456 39.1417 39.1515 39.0603 39.036C38.9922 38.9418 38.9433 38.8351 38.9165 38.722C38.8896 38.609 38.8854 38.4917 38.9039 38.3769C38.9224 38.2622 38.9634 38.1522 39.0244 38.0534C39.0855 37.9545 39.1655 37.8686 39.2597 37.8007C43.4309 34.8044 48.1277 32.6191 53.1055 31.3584C53.2183 31.3297 53.3357 31.3235 53.451 31.3402C53.5662 31.3569 53.6771 31.3962 53.7772 31.4557C53.8772 31.5153 53.9646 31.594 54.0343 31.6873C54.104 31.7807 54.1546 31.8868 54.1833 31.9998C54.212 32.1127 54.2182 32.2302 54.2015 32.3455C54.1848 32.4608 54.1456 32.5717 54.086 32.6718C54.0265 32.772 53.9479 32.8594 53.8546 32.9292C53.7613 32.9989 53.6552 33.0495 53.5423 33.0782C48.7803 34.2783 44.2864 36.3638 40.2948 39.226C40.1481 39.3404 39.968 39.4038 39.782 39.4065Z" fill="#772F1E"/>
<path d="M48.1575 39.7393C47.9313 39.7397 47.7135 39.6531 47.5492 39.4975C47.3849 39.3419 47.2865 39.1292 47.2743 38.9032C47.2666 38.7858 47.2821 38.6681 47.32 38.5568C47.3578 38.4454 47.4173 38.3427 47.4949 38.2544C47.5726 38.1661 47.6669 38.094 47.7724 38.0423C47.878 37.9906 47.9927 37.9602 48.11 37.953C51.3891 37.8453 54.6524 37.4511 57.8628 36.7747C61.9368 35.8003 65.7376 33.9162 68.9807 31.2636C72.2237 28.611 74.825 25.2587 76.5897 21.4576C76.688 21.2446 76.8667 21.0795 77.0866 20.9984C77.3066 20.9173 77.5497 20.927 77.7625 21.0252C77.9754 21.1235 78.1404 21.3024 78.2215 21.5224C78.3025 21.7425 78.2928 21.9858 78.1946 22.1987C76.3192 26.2485 73.5501 29.82 70.0959 32.6442C66.6416 35.4685 62.5921 37.472 58.2522 38.5041C54.9423 39.2068 51.5771 39.617 48.1955 39.7298L48.1575 39.7393Z" fill="#772F1E"/>
<path d="M96.1724 48.8611C96.0028 48.8622 95.8365 48.8143 95.6933 48.7234C95.5502 48.6324 95.4363 48.5021 95.3652 48.348C94.1116 45.6115 92.2788 44.3382 89.9617 42.7609C89.297 42.3048 88.5942 41.8107 87.882 41.3071C85.9827 39.9198 83.7701 37.6393 83.6656 34.6557C83.6606 34.5365 83.6791 34.4176 83.7201 34.3056C83.7611 34.1936 83.8237 34.0907 83.9044 34.0029C83.985 33.9151 84.0822 33.8441 84.1904 33.7939C84.2985 33.7437 84.4154 33.7153 84.5345 33.7103C84.6536 33.7053 84.7725 33.7238 84.8845 33.7648C84.9964 33.8058 85.0992 33.8684 85.1869 33.9492C85.2747 34.0299 85.3456 34.1271 85.3958 34.2353C85.446 34.3435 85.4744 34.4605 85.4794 34.5797C85.5649 36.8792 87.3787 38.7416 88.9836 39.8913C89.6768 40.4044 90.3511 40.8415 91.0063 41.3071C93.3519 42.8939 95.5646 44.3952 97.027 47.6164C97.0746 47.7224 97.1007 47.8368 97.104 47.953C97.1073 48.0691 97.0876 48.1848 97.0462 48.2934C97.0047 48.4019 96.9423 48.5013 96.8624 48.5856C96.7825 48.67 96.6868 48.7378 96.5807 48.7851C96.4537 48.8461 96.3128 48.8723 96.1724 48.8611Z" fill="#772F1E"/>
<path d="M99.7237 57.3554H99.5623C99.3319 57.3138 99.1274 57.1823 98.9939 56.9898C98.8603 56.7974 98.8086 56.5598 98.8501 56.3292C100.123 49.1267 99.2109 39.4157 92.8578 33.7431C92.684 33.5848 92.5795 33.3644 92.567 33.1296C92.5546 32.8948 92.6352 32.6645 92.7914 32.4888C92.9449 32.3155 93.1603 32.2095 93.3912 32.1935C93.622 32.1775 93.85 32.2528 94.0259 32.4033C100.92 38.551 101.936 48.9462 100.578 56.6237C100.543 56.8261 100.439 57.0098 100.283 57.1433C100.127 57.2768 99.929 57.3518 99.7237 57.3554Z" fill="#772F1E"/>
<g style="mix-blend-mode:screen" opacity="0.27">
<path d="M105.213 35.929C103.826 19.1676 93.8836 11.7655 79.0787 11.2809C77.018 6.72952 72.0703 -0.12139 61.0355 0.00213561C54.1199 0.135789 47.3202 1.80416 41.1273 4.88681C34.9344 7.96946 29.5028 12.3895 25.2246 17.8278C19.0709 25.5244 17.3236 41.8202 25.4715 52.928C23.0404 46.0391 22.1382 38.2285 24.1705 31.3586C27.0194 21.8566 34.4646 13.9035 43.3057 9.65612C53.0395 4.98116 64.7961 7.27113 73.02 14.1315C72.5601 11.7504 71.6755 9.47158 70.4085 7.40415C73.4271 10.0234 75.8107 13.2955 77.3788 16.9726L78.5184 13.7895C78.7653 14.7397 79.0027 15.6328 79.2401 16.5545C82.9591 15.8143 86.801 15.9739 90.4459 17.0201L83.504 19.3196C86.5618 18.3124 91.538 19.9942 94.045 21.6381C97.1856 23.8608 99.7298 26.8242 101.452 30.2658C103.225 33.4894 104.524 36.9521 105.308 40.5469C105.369 39.0071 105.337 37.465 105.213 35.929Z" fill="#772F1E"/>
</g>
<path d="M10.9783 102.243C10.9783 102.243 17.5119 98.9461 15.8405 89.3491C15.8405 89.3491 49.1349 95.8485 61.4232 112.078C61.4232 112.078 79.8842 98.7751 110.548 92.9409C110.548 92.9409 110.045 101.056 115.078 104.609L65.8865 132.726L10.9783 102.243Z" fill="#FFEBDD"/>
<g style="mix-blend-mode:multiply" opacity="0.41">
<path d="M47.8054 122.681L93.4736 116.98L115.049 104.628C113.304 103.313 112.028 101.471 111.412 99.3731L71.7838 110.025C71.7838 110.025 67.4534 114.272 62.3539 114.595C60.9839 114.751 59.5987 114.495 58.3744 113.86C57.1502 113.226 56.1421 112.241 55.4785 111.032L14.3306 98.936C13.501 100.297 12.3498 101.432 10.9783 102.243L47.8054 122.681Z" fill="#E79E82"/>
</g>
<g style="mix-blend-mode:multiply" opacity="0.41">
<g style="mix-blend-mode:multiply" opacity="0.41">
<path d="M46.7905 105.996C46.7905 105.996 29.5925 97.444 16.0126 94.0898C15.9223 94.858 15.7569 95.6155 15.5188 96.3513C26.1544 98.8338 36.6037 102.056 46.7905 105.996Z" fill="#E79E82"/>
</g>
<g style="mix-blend-mode:multiply" opacity="0.41">
<path d="M84.8796 104.21C84.8796 104.21 101.175 99.4587 111.004 97.8719C110.814 97.0651 110.681 96.2459 110.605 95.4204C104.718 97.1403 92.1254 100.97 84.8796 104.21Z" fill="#E79E82"/>
</g>
<g style="mix-blend-mode:multiply" opacity="0.41">
<path d="M110.521 92.9406C79.8568 98.8223 61.3958 112.125 61.3958 112.125C49.1359 95.8482 15.8416 89.3203 15.8416 89.3203C15.9555 89.9854 16.022 90.6126 16.0695 91.2207C23.2203 92.456 46.3155 97.492 61.6522 113.018C61.6522 113.018 85.2223 98.0051 110.53 94.1663C110.492 93.4252 110.521 92.9406 110.521 92.9406Z" fill="#E79E82"/>
</g>
</g>
<path d="M6.76245 102.243L8.66173 99.7631L54.273 112.22C54.273 112.22 56.5616 116.068 62.7248 116.068C66.7892 116.068 71.5849 112.078 71.5849 112.078L116.56 99.7251L118.013 102.205L67.6249 127.404L6.76245 102.243Z" fill="#B695F7"/>
<path d="M15.0051 147.738L6.77173 102.243L53.6555 115.507L57.454 160.737L15.0051 147.738Z" fill="#864FF1"/>
<path d="M70.6351 115.507L118.013 102.243L111.08 149.078L71.7841 159.701L70.6351 115.507Z" fill="#864FF1"/>
<path d="M53.6547 115.507C56.133 117.275 59.1008 118.225 62.1444 118.225C65.1881 118.225 68.1559 117.275 70.6342 115.507L71.7833 159.701C71.7833 159.701 65.886 167.588 57.4532 160.737L53.6547 115.507Z" fill="#864FF1"/>
<path d="M53.6547 115.507C56.133 117.275 59.1008 118.225 62.1444 118.225C65.1881 118.225 68.1559 117.275 70.6342 115.507L71.7833 159.701C71.7833 159.701 70.8337 163.255 64.7939 163.502C62.6952 163.597 60.2167 162.96 57.4532 160.718L53.6547 115.507Z" fill="#864FF1"/>
<g style="mix-blend-mode:multiply" opacity="0.37">
<path d="M53.6547 115.507C56.133 117.275 59.1008 118.225 62.1444 118.225C65.1881 118.225 68.1559 117.275 70.6342 115.507L71.7833 159.701C71.7833 159.701 70.8337 163.255 64.7939 163.502C62.6952 163.597 60.2167 162.96 57.4532 160.718L53.6547 115.507Z" fill="#8E487A"/>
</g>
<g style="mix-blend-mode:multiply" opacity="0.13">
<path d="M15.0059 147.739L57.4549 160.737L54.5395 125.97C53.5898 132.384 51.8995 141.173 49.6393 144.48C45.9167 149.839 36.2684 154.2 21.7769 143.805C18.2632 141.287 15.1294 137.467 12.3564 133.144L15.0059 147.739Z" fill="#8E487A"/>
</g>
<g style="mix-blend-mode:multiply" opacity="0.13">
<path d="M104.955 141.324C93.1797 149.22 79.8468 143.405 71.0246 130.245L71.7843 159.701L111.118 149.078L113.967 129.846C111.764 134.492 108.858 138.73 104.955 141.324Z" fill="#8E487A"/>
</g>
<g style="mix-blend-mode:multiply" opacity="0.37">
<path d="M54.302 123.119C54.302 123.119 62.7348 127.594 70.8352 123.119L70.9492 127.404C70.9492 127.404 64.8715 132.488 54.6534 127.404L54.302 123.119Z" fill="#8E487A"/>
</g>
<g style="mix-blend-mode:multiply" opacity="0.37">
<path d="M56.6854 151.596C58.9968 152.753 61.5459 153.356 64.1305 153.356C66.7152 153.356 69.2643 152.753 71.5757 151.596L71.6992 156.347C69.5144 157.73 66.982 158.465 64.3964 158.465C61.8109 158.465 59.2785 157.73 57.0937 156.347L56.6854 151.596Z" fill="#8E487A"/>
</g>
<path d="M117.425 116.781C117.425 116.781 115.146 114.358 113.569 114.615C111.993 114.871 113.626 117.275 115.098 118.511C115.098 118.511 109.277 116.99 109.04 118.254C108.802 119.518 113.959 121.39 113.959 121.39C113.959 121.39 108.441 120.762 108.84 122.245C109.239 123.727 113.883 124.335 113.883 124.335C113.883 124.335 108.707 124.107 108.736 125.285C108.764 126.464 113.19 127.499 115.687 126.236C116.636 125.745 117.434 125.006 117.996 124.098C118.558 123.189 118.863 122.145 118.878 121.076C118.96 120.298 118.872 119.511 118.621 118.769C118.371 118.028 117.962 117.35 117.425 116.781Z" fill="#FFBF94"/>
<path d="M8.15983 116.781C8.15983 116.781 10.439 114.358 12.0154 114.615C13.5918 114.871 11.9584 117.275 10.4864 118.511C10.4864 118.511 16.3077 116.99 16.5451 118.254C16.7826 119.518 11.626 121.39 11.626 121.39C11.626 121.39 17.1434 120.762 16.7446 122.245C16.3457 123.727 11.702 124.335 11.702 124.335C11.702 124.335 16.8775 124.107 16.849 125.285C16.8205 126.464 12.3952 127.499 9.89767 126.236C8.94874 125.745 8.15069 125.006 7.58872 124.098C7.02676 123.189 6.72196 122.145 6.70688 121.076C6.62513 120.298 6.71266 119.511 6.96346 118.769C7.21425 118.028 7.62238 117.35 8.15983 116.781Z" fill="#FFBF94"/>
</svg>
