<svg width="228" height="60" viewBox="0 0 228 60" fill="none" xmlns="http://www.w3.org/2000/svg">
<path d="M73.5659 23.257C73.5659 23.8163 73.6901 24.2824 74.0006 24.5932C74.3111 24.935 74.7459 25.0903 75.3048 25.0903H91.1105C91.6695 25.0903 92.1353 24.935 92.4458 24.5932C92.7563 24.2513 92.9116 23.8163 92.9116 23.257V11.6666C92.9116 11.1694 92.7563 10.7344 92.4458 10.3926C92.1353 10.0508 91.7316 9.86436 91.1726 9.86436C90.6137 9.86436 90.21 10.0508 89.8995 10.3926C89.589 10.7344 89.4648 11.1694 89.4648 11.6666V22.1073H84.9621V11.6666C84.9621 11.1694 84.8069 10.7344 84.4964 10.3926C84.1858 10.0508 83.7821 9.86436 83.2232 9.86436C82.6643 9.86436 82.2606 10.0508 81.95 10.3926C81.6395 10.7344 81.5153 11.1694 81.5153 11.6666V22.1073H77.0127V3.38038C77.0127 2.88321 76.8574 2.44818 76.5469 2.10637C76.2364 1.76457 75.8327 1.57812 75.2738 1.57812C74.7148 1.57812 74.3111 1.76457 74.0006 2.10637C73.6901 2.44818 73.5659 2.88321 73.5659 3.38038V23.257Z" fill="#243976"/>
<path d="M97.6781 23.2881C97.6781 23.8163 97.8023 24.2513 98.1128 24.5932C98.3923 24.935 98.827 25.0903 99.386 25.0903C99.9449 25.0903 100.349 24.935 100.659 24.5932C100.97 24.2513 101.125 23.8163 101.125 23.2881V18.4095L106.87 24.2513C107.863 25.3078 108.764 25.37 109.571 24.4999C109.882 24.1892 110.006 23.7852 109.944 23.3191C109.882 22.853 109.664 22.418 109.292 22.0451L104.354 17.4152L108.764 12.7231C109.136 12.3192 109.354 11.8841 109.416 11.4491C109.447 11.0141 109.323 10.6412 109.012 10.3305C108.205 9.5847 107.335 9.709 106.404 10.7655L101.125 16.7627V11.6666C101.125 11.1694 100.97 10.7344 100.659 10.3926C100.349 10.0508 99.9449 9.86436 99.386 9.86436C98.827 9.86436 98.4233 10.0508 98.1128 10.3926C97.8023 10.7344 97.6781 11.1694 97.6781 11.6666V23.2881Z" fill="#243976"/>
<path d="M113.346 17.4773C113.346 19.8389 113.998 21.7344 115.302 23.1949C116.606 24.6864 118.407 25.4011 120.767 25.4011C123.096 25.4011 124.928 24.6864 126.233 23.1949C127.537 21.7033 128.22 19.8078 128.22 17.4773C128.22 15.1779 127.537 13.2824 126.233 11.7909C124.928 10.2994 123.096 9.55363 120.767 9.55363C118.407 9.55363 116.606 10.2994 115.302 11.7598C113.998 13.2514 113.346 15.1468 113.346 17.4773ZM116.948 17.4773C116.948 16.048 117.258 14.8672 117.942 13.935C118.594 13.0028 119.525 12.5367 120.767 12.5367C122.009 12.5367 122.941 13.0028 123.624 13.9039C124.276 14.8361 124.618 16.0169 124.618 17.4773C124.618 18.9689 124.276 20.1497 123.624 21.0508C122.941 21.983 122.009 22.418 120.767 22.418C119.525 22.418 118.594 21.983 117.942 21.0508C117.258 20.1497 116.948 18.9689 116.948 17.4773Z" fill="#243976"/>
<path d="M141.529 30.5385C141.529 31.0668 141.654 31.5018 141.964 31.8436C142.275 32.1854 142.709 32.3408 143.268 32.3408C143.827 32.3408 144.262 32.1854 144.573 31.8436C144.883 31.5018 145.038 31.0668 145.038 30.5385V11.6666C145.038 11.1694 144.883 10.7655 144.573 10.3926C144.262 10.0508 143.827 9.86436 143.268 9.86436H136.437C135.94 9.86436 135.505 10.0197 135.164 10.3305C134.791 10.6412 134.605 11.0762 134.605 11.6666C134.418 16.079 134.108 19.0621 133.673 20.5847C133.394 21.548 132.897 22.0141 132.214 22.0141C131.22 22.0141 130.692 22.5112 130.692 23.4434C130.661 24.0338 130.847 24.4689 131.251 24.7485C131.624 25.0593 132.152 25.1835 132.773 25.1835C134.698 25.1835 136.002 24.0649 136.685 21.8276C137.306 19.87 137.679 16.918 137.803 12.9717H141.529V30.5385Z" fill="#243976"/>
<path d="M159.34 23.2881C159.34 23.8163 159.465 24.2513 159.744 24.5932C160.024 24.935 160.458 25.0903 161.017 25.0903C161.576 25.0903 161.98 24.935 162.259 24.5932C162.539 24.2824 162.694 23.8474 162.694 23.2881V15.3333C162.694 11.4802 160.645 9.55363 156.577 9.55363C154.341 9.55363 152.633 9.95758 151.515 10.7033C150.739 11.2005 150.49 11.822 150.739 12.5367C150.863 12.9096 151.08 13.1271 151.422 13.2514C151.764 13.3757 152.136 13.3757 152.509 13.2514C152.664 13.2203 152.912 13.1581 153.254 13.0339L153.999 12.8163C154.155 12.7542 154.372 12.692 154.62 12.6299C154.869 12.5677 155.148 12.5367 155.397 12.5056C155.645 12.5056 155.894 12.4745 156.173 12.4745C157.415 12.4745 158.254 12.7542 158.688 13.3135C159.123 13.8728 159.34 14.6186 159.34 15.6129V15.9548C158.471 15.8305 157.384 15.7372 156.08 15.7372C154.155 15.7372 152.571 16.1723 151.298 16.9802C150.025 17.7881 149.404 19.0932 149.404 20.8333C149.404 22.2316 149.838 23.3502 150.708 24.1581C151.577 24.9971 152.819 25.4011 154.372 25.4011C156.67 25.4011 158.316 24.531 159.34 22.7288V23.2881ZM155.304 22.6666C154.527 22.6666 153.937 22.4802 153.502 22.1073C153.068 21.7344 152.85 21.2062 152.85 20.5536C152.85 18.8135 154.092 17.9434 156.577 17.9434C157.757 17.9434 158.657 18.0056 159.34 18.0988V18.6271C159.34 19.6836 158.968 20.6468 158.254 21.4547C157.508 22.2626 156.546 22.6666 155.304 22.6666Z" fill="#243976"/>
<path d="M81.1737 35.6553C81.6706 35.4688 82.3537 35.2203 83.2232 34.9095C84.0616 34.6299 84.6516 34.4123 84.9621 34.257C86.0179 33.7598 86.4216 33.0762 86.1111 32.1751C85.8006 31.305 84.9621 31.1186 83.6579 31.5847L80.0558 32.9208C77.2611 34.0084 75.3669 35.3756 74.3422 37.0225C73.2864 38.6694 72.7896 41.0931 72.7896 44.2937C72.7896 47.2146 73.4106 49.4829 74.6527 51.0366C75.8948 52.5903 77.7269 53.3671 80.18 53.3671C82.3848 53.3671 84.1548 52.6835 85.49 51.2541C86.7942 49.8558 87.4774 48.0846 87.4774 45.9095C87.4774 43.7344 86.8874 41.9943 85.7385 40.6892C84.5585 39.3841 82.9748 38.7005 80.9253 38.7005C79.8695 38.7005 78.8448 38.9491 77.8511 39.4462C76.8574 39.9434 76.0811 40.6581 75.5222 41.6524C75.5843 39.9123 76.2674 38.483 77.6027 37.4265C78.2858 36.8982 79.4658 36.3078 81.1737 35.6553ZM83.8753 46.0338C83.8753 47.401 83.5337 48.4886 82.8816 49.2344C82.2295 50.0112 81.329 50.3841 80.149 50.3841C79.0001 50.3841 78.0995 50.0112 77.4785 49.2654C76.8264 48.5197 76.5159 47.4632 76.5159 46.0959C76.5159 44.7287 76.8264 43.6722 77.5095 42.8643C78.1616 42.0875 79.0622 41.6835 80.18 41.6835C81.36 41.6835 82.2606 42.0875 82.9127 42.8332C83.5337 43.6101 83.8753 44.6666 83.8753 46.0338Z" fill="#243976"/>
<path d="M95.9071 53.0564C95.4413 54.2372 95.0066 55.1383 94.6029 55.7287C94.1682 56.3191 93.6403 56.5988 92.9882 56.5988C92.6466 56.5988 92.0876 56.4745 91.3113 56.2259C90.3798 55.9773 89.7898 56.1637 89.4792 56.8473C89.0755 57.7174 89.3861 58.4632 90.4419 59.0225C91.125 59.3954 91.9634 59.5818 92.9571 59.5818C94.2924 59.5818 95.3792 59.1468 96.2176 58.2456C97.056 57.3445 97.9255 55.6666 98.8571 53.2118L103.701 40.3784C104.167 39.0734 103.95 38.2654 103.018 37.9547C101.9 37.5818 101.155 38.0479 100.72 39.3841L97.5218 48.8925L93.8887 39.2598C93.3918 37.9858 92.5534 37.5508 91.4355 37.9858C90.8766 38.2033 90.5661 38.5762 90.4419 39.1044C90.3176 39.6327 90.3798 40.1299 90.6282 40.596L95.9071 53.0564Z" fill="#243976"/>
<path d="M118.946 53.0564V54.9829C118.946 55.4801 119.07 55.8841 119.319 56.1948C119.567 56.5055 119.971 56.6609 120.468 56.6609C121.461 56.6609 121.958 56.1016 121.958 54.9829V51.8756C121.958 51.4406 121.834 51.0366 121.585 50.7259C121.337 50.4151 120.964 50.2598 120.468 50.2598H119.66V39.6327C119.66 39.1044 119.505 38.6694 119.194 38.3276C118.884 38.0169 118.449 37.8304 117.89 37.8304H110.872C109.692 37.8304 109.102 38.4519 109.04 39.6327C109.04 39.7259 109.009 40.0056 109.009 40.4717C108.978 40.9688 108.947 41.3728 108.947 41.7457C108.916 42.1185 108.885 42.6157 108.854 43.2372C108.792 43.8587 108.761 44.3869 108.699 44.853L108.543 46.4378C108.481 47.0281 108.388 47.5253 108.295 47.9603C108.171 48.3954 108.078 48.7683 107.953 49.1411C107.829 49.514 107.674 49.7937 107.519 49.9801C107.332 50.1666 107.177 50.2598 106.991 50.2598H106.835C106.339 50.2598 105.997 50.4151 105.749 50.7259C105.5 51.0366 105.376 51.4095 105.376 51.8756V54.9829C105.376 56.1016 105.873 56.6609 106.867 56.6609C107.363 56.6609 107.736 56.5055 107.984 56.1948C108.233 55.8841 108.388 55.4801 108.388 54.9829V53.0564H118.946ZM110.841 50.2598C111.555 48.3332 111.959 45.1948 112.083 40.8135H116.213V50.2598H110.841Z" fill="#243976"/>
<path d="M131.13 53.0564C130.664 54.2372 130.23 55.1383 129.826 55.7287C129.391 56.3191 128.863 56.5988 128.211 56.5988C127.87 56.5988 127.311 56.4745 126.535 56.2259C125.603 55.9773 125.013 56.1637 124.702 56.8473C124.299 57.7174 124.609 58.4632 125.665 59.0225C126.348 59.3954 127.187 59.5818 128.18 59.5818C129.516 59.5818 130.602 59.1468 131.441 58.2456C132.279 57.3445 133.149 55.6666 134.08 53.2118L138.924 40.3784C139.39 39.0734 139.173 38.2654 138.241 37.9547C137.123 37.5818 136.378 38.0479 135.943 39.3841L132.745 48.8925L129.112 39.2598C128.615 37.9858 127.777 37.5508 126.659 37.9858C126.1 38.2033 125.789 38.5762 125.665 39.1044C125.541 39.6327 125.603 40.1299 125.851 40.596L131.13 53.0564Z" fill="#243976"/>
<path d="M144.716 53.0564H161.391V54.9829C161.391 55.4801 161.515 55.8841 161.764 56.1948C162.012 56.5055 162.416 56.6609 162.913 56.6609C163.907 56.6609 164.403 56.1016 164.403 54.9829V51.6892C164.403 51.2541 164.279 50.8502 164.031 50.5394C163.782 50.2287 163.41 50.0733 162.913 50.0733H162.323V39.6327C162.323 39.1355 162.168 38.7005 161.857 38.3587C161.547 38.0169 161.143 37.8304 160.584 37.8304C160.025 37.8304 159.621 38.0169 159.311 38.3587C159 38.7005 158.876 39.1355 158.876 39.6327V50.0733H154.373V39.6327C154.373 39.1355 154.218 38.7005 153.908 38.3587C153.597 38.0169 153.193 37.8304 152.634 37.8304C152.076 37.8304 151.672 38.0169 151.361 38.3587C151.051 38.7005 150.927 39.1355 150.927 39.6327V50.0733H146.424V39.6327C146.424 39.1355 146.269 38.7005 145.958 38.3587C145.648 38.0169 145.244 37.8304 144.685 37.8304C144.126 37.8304 143.722 38.0169 143.412 38.3587C143.101 38.7005 142.977 39.1355 142.977 39.6327V51.2231C142.977 51.7824 143.101 52.2485 143.412 52.5592C143.722 52.901 144.157 53.0564 144.716 53.0564Z" fill="#243976"/>
<path d="M179.593 46.7174C180.183 46.7174 180.649 46.5931 180.96 46.3445C181.27 46.0959 181.488 45.7231 181.643 45.1637C181.736 44.7909 181.798 44.3248 181.798 43.7033C181.798 41.8389 181.208 40.3474 180.09 39.2287C178.972 38.1101 177.42 37.5197 175.432 37.5197C173.197 37.5197 171.458 38.2654 170.154 39.6948C168.849 41.1553 168.197 43.0818 168.197 45.5055C168.197 48.0225 168.787 49.949 170.029 51.3163C171.271 52.6835 173.041 53.3671 175.37 53.3671C177.42 53.3671 179.066 52.9632 180.277 52.1553C180.649 51.9067 180.898 51.5959 181.022 51.2231C181.146 50.8502 181.115 50.4773 180.929 50.1666C180.556 49.514 179.904 49.3587 179.003 49.7315C177.699 50.2909 176.612 50.5394 175.712 50.5394C174.501 50.5394 173.538 50.1976 172.824 49.514C172.079 48.8304 171.706 47.8982 171.675 46.7174H179.593ZM175.432 40.3474C176.457 40.3474 177.233 40.6581 177.761 41.2174C178.289 41.8078 178.569 42.5536 178.569 43.4858C178.569 43.7965 178.538 44.0762 178.538 44.2626H171.675C171.768 43.0197 172.141 42.0564 172.793 41.3728C173.445 40.6892 174.315 40.3474 175.432 40.3474Z" fill="#243976"/>
<path d="M188.491 37.8304C187.932 37.8304 187.528 38.0169 187.218 38.3587C186.907 38.7315 186.752 39.1355 186.752 39.6327V57.4688C186.752 57.9971 186.876 58.4321 187.187 58.7739C187.497 59.1157 187.932 59.2711 188.491 59.2711C189.05 59.2711 189.484 59.1157 189.795 58.7739C190.106 58.4321 190.261 57.9971 190.261 57.4688V40.9378H195.447C196.564 40.9378 197.123 40.4406 197.123 39.4152C197.123 38.3587 196.564 37.8304 195.447 37.8304H188.491Z" fill="#243976"/>
<path d="M199.357 45.4434C199.357 47.805 200.009 49.7005 201.313 51.1609C202.617 52.6524 204.418 53.3671 206.778 53.3671C209.107 53.3671 210.939 52.6524 212.244 51.1609C213.548 49.6694 214.231 47.7739 214.231 45.4434C214.231 43.144 213.548 41.2485 212.244 39.757C210.939 38.2654 209.107 37.5197 206.778 37.5197C204.418 37.5197 202.617 38.2654 201.313 39.7259C200.009 41.2174 199.357 43.1129 199.357 45.4434ZM202.959 45.4434C202.959 44.014 203.269 42.8332 203.953 41.901C204.605 40.9688 205.536 40.5027 206.778 40.5027C208.021 40.5027 208.952 40.9688 209.635 41.87C210.287 42.8022 210.629 43.983 210.629 45.4434C210.629 46.9349 210.287 48.1157 209.635 49.0168C208.952 49.949 208.021 50.3841 206.778 50.3841C205.536 50.3841 204.605 49.949 203.953 49.0168C203.269 48.1157 202.959 46.9349 202.959 45.4434Z" fill="#243976"/>
<path d="M172.106 15.1855C172.106 9.38655 176.807 4.68555 182.606 4.68555H217.5C223.299 4.68555 228 9.38656 228 15.1855V15.9369C228 21.7359 223.299 26.4369 217.5 26.4369H173.106C172.553 26.4369 172.106 25.9892 172.106 25.4369V15.1855Z" fill="#49B3F7"/>
<path d="M179.352 16.8265C179.352 17.8386 179.637 18.651 180.206 19.2769C180.776 19.9161 181.562 20.2224 182.592 20.2224C183.609 20.2224 184.409 19.9161 184.979 19.2769C185.548 18.6377 185.847 17.8253 185.847 16.8265C185.847 15.8411 185.548 15.0287 184.979 14.3895C184.409 13.7503 183.609 13.4307 182.592 13.4307C181.562 13.4307 180.776 13.7503 180.206 14.3762C179.637 15.0154 179.352 15.8277 179.352 16.8265ZM180.925 16.8265C180.925 16.2139 181.06 15.7079 181.359 15.3084C181.643 14.9089 182.05 14.7091 182.592 14.7091C183.135 14.7091 183.542 14.9089 183.84 15.2951C184.125 15.6946 184.274 16.2006 184.274 16.8265C184.274 17.4658 184.125 17.9718 183.84 18.358C183.542 18.7575 183.135 18.944 182.592 18.944C182.05 18.944 181.643 18.7575 181.359 18.358C181.06 17.9718 180.925 17.4658 180.925 16.8265Z" fill="white"/>
<path d="M187.133 19.3168C187.133 19.5432 187.187 19.7297 187.322 19.8762C187.458 20.0227 187.648 20.0892 187.892 20.0892C188.136 20.0892 188.326 20.0227 188.461 19.8762C188.597 19.7297 188.665 19.5432 188.665 19.3168V17.5989C188.665 17.1994 188.692 16.8398 188.746 16.5202C188.8 16.2139 188.882 15.921 188.99 15.6413C189.099 15.3616 189.275 15.1486 189.492 14.9888C189.709 14.8423 189.98 14.7624 190.305 14.7624C191.065 14.7624 191.458 15.2684 191.458 16.2539V19.3168C191.458 19.5432 191.512 19.7297 191.648 19.8762C191.783 20.0227 191.973 20.0892 192.217 20.0892C192.461 20.0892 192.651 20.0227 192.787 19.8762C192.922 19.7297 192.99 19.5432 192.99 19.3168V16.2805C192.99 15.3483 192.814 14.6292 192.461 14.1498C192.109 13.6704 191.512 13.4307 190.672 13.4307C190.238 13.4307 189.844 13.5239 189.492 13.7103C189.139 13.8968 188.855 14.1764 188.665 14.536V14.3362C188.665 14.1231 188.597 13.9367 188.461 13.7902C188.326 13.6437 188.136 13.5638 187.892 13.5638C187.648 13.5638 187.458 13.6437 187.322 13.7902C187.187 13.9367 187.133 14.1231 187.133 14.3362V19.3168Z" fill="white"/>
<path d="M197.909 17.1994C198.126 17.1994 198.302 17.1461 198.438 17.0263C198.573 16.9198 198.641 16.7466 198.641 16.5336C198.641 16.3338 198.573 16.174 198.438 16.0541C198.302 15.9343 198.126 15.8677 197.909 15.8677H194.6C194.383 15.8677 194.207 15.9343 194.072 16.0541C193.936 16.174 193.868 16.3338 193.868 16.5336C193.868 16.7466 193.936 16.9198 194.072 17.0263C194.207 17.1461 194.383 17.1994 194.6 17.1994H197.909Z" fill="white"/>
<path d="M199.527 18.0384C199.527 19.5033 200.205 20.2224 201.574 20.2224C202.144 20.2224 202.591 20.1292 202.944 19.9294C203.377 19.6897 203.527 19.3834 203.377 18.9839C203.31 18.8374 203.201 18.7442 203.038 18.6909C202.876 18.651 202.713 18.6643 202.55 18.7309C202.279 18.8374 202.049 18.8907 201.832 18.8907C201.547 18.8907 201.344 18.8108 201.235 18.6377C201.113 18.4779 201.059 18.1982 201.059 17.8253V11.6728C201.059 11.4597 200.991 11.2733 200.855 11.1268C200.72 10.9803 200.53 10.9004 200.286 10.9004C200.042 10.9004 199.852 10.9803 199.716 11.1268C199.581 11.2733 199.527 11.4597 199.527 11.6728V18.0384Z" fill="white"/>
<path d="M204.095 19.3168C204.095 19.5432 204.149 19.7297 204.285 19.8762C204.42 20.0227 204.61 20.0892 204.854 20.0892C205.098 20.0892 205.288 20.0227 205.424 19.8762C205.559 19.7297 205.627 19.5432 205.627 19.3168V14.3362C205.627 14.1231 205.559 13.9367 205.424 13.7902C205.288 13.6437 205.098 13.5638 204.854 13.5638C204.61 13.5638 204.42 13.6437 204.285 13.7902C204.149 13.9367 204.095 14.1231 204.095 14.3362V19.3168ZM203.973 11.8459C203.973 12.1123 204.041 12.3253 204.203 12.4585C204.366 12.5917 204.583 12.6583 204.854 12.6583C205.125 12.6583 205.342 12.5917 205.505 12.4452C205.668 12.312 205.749 12.1123 205.749 11.8459C205.749 11.6062 205.668 11.4064 205.505 11.26C205.342 11.1135 205.125 11.0336 204.854 11.0336C204.583 11.0336 204.366 11.1135 204.203 11.26C204.041 11.4064 203.973 11.6062 203.973 11.8459Z" fill="white"/>
<path d="M207.26 19.3168C207.26 19.5432 207.314 19.7297 207.449 19.8762C207.585 20.0227 207.775 20.0892 208.019 20.0892C208.263 20.0892 208.453 20.0227 208.588 19.8762C208.724 19.7297 208.792 19.5432 208.792 19.3168V17.5989C208.792 17.1994 208.819 16.8398 208.873 16.5202C208.927 16.2139 209.009 15.921 209.117 15.6413C209.226 15.3616 209.402 15.1486 209.619 14.9888C209.836 14.8423 210.107 14.7624 210.433 14.7624C211.192 14.7624 211.585 15.2684 211.585 16.2539V19.3168C211.585 19.5432 211.639 19.7297 211.775 19.8762C211.911 20.0227 212.1 20.0892 212.344 20.0892C212.588 20.0892 212.778 20.0227 212.914 19.8762C213.049 19.7297 213.117 19.5432 213.117 19.3168V16.2805C213.117 15.3483 212.941 14.6292 212.588 14.1498C212.236 13.6704 211.639 13.4307 210.799 13.4307C210.365 13.4307 209.972 13.5239 209.619 13.7103C209.266 13.8968 208.982 14.1764 208.792 14.536V14.3362C208.792 14.1231 208.724 13.9367 208.588 13.7902C208.453 13.6437 208.263 13.5638 208.019 13.5638C207.775 13.5638 207.585 13.6437 207.449 13.7902C207.314 13.9367 207.26 14.1231 207.26 14.3362V19.3168Z" fill="white"/>
<path d="M219.378 17.3725C219.636 17.3725 219.839 17.3193 219.975 17.2127C220.111 17.1062 220.206 16.9464 220.273 16.7067C220.314 16.5469 220.341 16.3471 220.341 16.0808C220.341 15.2817 220.084 14.6425 219.595 14.1631C219.107 13.6837 218.429 13.4307 217.561 13.4307C216.585 13.4307 215.826 13.7503 215.256 14.3629C214.687 14.9888 214.402 15.8144 214.402 16.8532C214.402 17.9319 214.66 18.7575 215.202 19.3435C215.745 19.9294 216.517 20.2224 217.534 20.2224C218.429 20.2224 219.148 20.0493 219.677 19.703C219.839 19.5965 219.948 19.4633 220.002 19.3035C220.056 19.1437 220.043 18.9839 219.961 18.8507C219.799 18.5711 219.514 18.5045 219.121 18.6643C218.551 18.904 218.077 19.0105 217.684 19.0105C217.155 19.0105 216.734 18.8641 216.422 18.5711C216.097 18.2781 215.934 17.8786 215.921 17.3725H219.378ZM217.561 14.6425C218.009 14.6425 218.348 14.7757 218.578 15.0154C218.809 15.2684 218.931 15.588 218.931 15.9875C218.931 16.1207 218.917 16.2406 218.917 16.3205H215.921C215.961 15.7878 216.124 15.375 216.409 15.082C216.694 14.789 217.073 14.6425 217.561 14.6425Z" fill="white"/>
<path d="M0.174913 41.2407L5.89737 52.6932C26.8248 40.9136 25.9255 20.9264 23.473 12.2008L11.6196 19.154C11.6196 19.154 14.4807 30.1973 0.174913 41.2407Z" fill="#49B3F7"/>
<path d="M38.0525 1.82683L25.2836 0.997661C24.8979 25.0217 42.6005 34.3221 51.3673 36.6022L51.3431 22.8531C51.3431 22.8531 40.3701 19.7575 38.0525 1.82683Z" fill="#864FF1"/>
<path d="M53.4997 54.6483L60.7783 44.1174C40.3884 31.4289 23.3122 41.8363 16.8487 48.1866L28.6441 55.2381C28.6441 55.2381 36.9412 47.4141 53.4997 54.6483Z" fill="#49B3F7"/>
</svg>
